<?xml version="1.0" encoding="UTF-8" standalone="no"?>
<!-- Created with Inkscape (http://www.inkscape.org/) -->

<svg
   version="1.1"
   id="svg5364"
   width="800"
   height="800"
   viewBox="0 0 800 800"
   sodipodi:docname="guitars-publicdomainvectors.org.svg"
   inkscape:version="1.2 (dc2aedaf03, 2022-05-15)"
   xmlns:inkscape="http://www.inkscape.org/namespaces/inkscape"
   xmlns:sodipodi="http://sodipodi.sourceforge.net/DTD/sodipodi-0.dtd"
   xmlns="http://www.w3.org/2000/svg"
   xmlns:svg="http://www.w3.org/2000/svg">
  <defs
     id="defs5368">
    <clipPath
       clipPathUnits="userSpaceOnUse"
       id="clipPath5380">
      <path
         d="M 0,600 H 600 V 0 H 0 Z"
         id="path5378" />
    </clipPath>
  </defs>
  <sodipodi:namedview
     id="namedview5366"
     pagecolor="#ffffff"
     bordercolor="#000000"
     borderopacity="0.25"
     inkscape:showpageshadow="2"
     inkscape:pageopacity="0.0"
     inkscape:pagecheckerboard="0"
     inkscape:deskcolor="#d1d1d1"
     showgrid="false"
     inkscape:zoom="1.04625"
     inkscape:cx="400"
     inkscape:cy="400.4779"
     inkscape:window-width="1920"
     inkscape:window-height="1017"
     inkscape:window-x="-8"
     inkscape:window-y="-8"
     inkscape:window-maximized="1"
     inkscape:current-layer="g5372">
    <inkscape:page
       x="0"
       y="0"
       id="page5370"
       width="800"
       height="800" />
  </sodipodi:namedview>
  <g
     id="g5372"
     inkscape:groupmode="layer"
     inkscape:label="Page 1"
     transform="matrix(1.3333333,0,0,-1.3333333,0,800)">
    <g
       id="g5374">
      <g
         id="g5376"
         clip-path="url(#clipPath5380)">
        <g
           id="g5382"
           transform="translate(493.1572,223.7676)">
          <path
             d="M 0,0 C -0.477,-0.476 -1.248,-0.476 -1.724,0 -2.2,0.478 -2.2,1.248 -1.724,1.725 -1.248,2.2 -0.477,2.2 0,1.725 0.476,1.248 0.476,0.478 0,0 m -4.758,-4.758 c -0.475,-0.474 -1.248,-0.474 -1.723,0 -0.477,0.478 -0.477,1.248 0,1.726 0.475,0.474 1.248,0.474 1.723,0 0.477,-0.478 0.477,-1.248 0,-1.726 m -4.758,-4.757 c -0.475,-0.475 -1.248,-0.475 -1.723,0 -0.476,0.476 -0.476,1.247 0,1.724 0.475,0.477 1.248,0.477 1.723,0 0.477,-0.477 0.477,-1.248 0,-1.724 m -4.756,-4.756 c -0.477,-0.478 -1.249,-0.478 -1.725,0 -0.476,0.474 -0.476,1.248 0,1.722 0.476,0.477 1.248,0.477 1.725,0 0.475,-0.474 0.475,-1.248 0,-1.722 m -4.758,-4.758 c -0.477,-0.478 -1.248,-0.478 -1.725,0 -0.475,0.474 -0.475,1.248 0,1.722 0.477,0.477 1.248,0.477 1.725,0 0.475,-0.474 0.475,-1.248 0,-1.722 m -4.758,-4.759 c -0.477,-0.476 -1.248,-0.476 -1.724,0 -0.476,0.477 -0.476,1.248 0,1.725 0.476,0.475 1.247,0.475 1.724,0 0.477,-0.477 0.477,-1.248 0,-1.725 M 11.1,-3.733 c 1.609,1.608 -4.499,10.325 -13.645,19.47 l -4.95,-4.95 c 0.205,-0.204 0.384,-0.426 0.537,-0.658 0.46,-0.698 0.69,-1.508 0.69,-2.317 0,-1.08 -0.409,-2.158 -1.227,-2.976 L -27.941,-15.61 c -0.819,-0.82 -1.898,-1.229 -2.977,-1.229 -0.667,0 -1.327,0.176 -1.934,0.489 -0.373,0.195 -0.729,0.427 -1.041,0.74 l -4.95,-4.951 c 8.16,-8.161 15.978,-13.902 18.712,-13.902 0.33,0 0.586,0.084 0.76,0.257 l 1.474,1.476 c 1.971,-1.372 3.679,-2.163 4.754,-2.163 0.377,0 0.677,0.098 0.882,0.303 l 23.744,23.744 c 0.789,0.789 -0.005,2.972 -1.857,5.638 z m -99.663,44.719 c 0.477,0.476 1.249,0.476 1.724,0 0.477,-0.474 0.477,-1.248 0,-1.722 -0.475,-0.478 -1.247,-0.478 -1.724,0 -0.475,0.474 -0.475,1.248 0,1.722 m 4.758,4.758 c 0.476,0.477 1.248,0.477 1.724,0 0.477,-0.475 0.477,-1.248 0,-1.723 -0.476,-0.477 -1.248,-0.477 -1.724,0 -0.476,0.475 -0.476,1.248 0,1.723 m 4.758,4.758 c 0.476,0.477 1.247,0.477 1.724,0 0.475,-0.477 0.475,-1.248 0,-1.725 -0.477,-0.474 -1.248,-0.474 -1.724,0 -0.476,0.477 -0.476,1.248 0,1.725 m 4.757,4.758 c 0.477,0.475 1.248,0.475 1.725,0 0.475,-0.477 0.475,-1.247 0,-1.725 -0.477,-0.474 -1.248,-0.474 -1.725,0 -0.476,0.478 -0.476,1.248 0,1.725 m 4.758,4.758 c 0.476,0.475 1.248,0.475 1.724,0 0.476,-0.477 0.476,-1.249 0,-1.725 -0.476,-0.477 -1.248,-0.477 -1.724,0 -0.476,0.476 -0.476,1.248 0,1.725 m 4.758,4.756 c 0.475,0.476 1.248,0.476 1.723,0 0.477,-0.476 0.477,-1.248 0,-1.722 -0.475,-0.478 -1.248,-0.478 -1.723,0 -0.476,0.474 -0.476,1.246 0,1.722 M -88.429,35.891 c 0.897,0 1.794,0.34 2.479,1.026 l 25.928,25.928 c 1.369,1.368 1.369,3.589 0,4.958 -0.685,0.683 -1.582,1.026 -2.48,1.026 -0.896,0 -1.794,-0.343 -2.478,-1.026 L -90.908,41.875 c -1.369,-1.37 -1.369,-3.589 0,-4.958 0.684,-0.686 1.582,-1.026 2.479,-1.026 M -51.631,4.056 c -0.475,-0.478 -1.247,-0.478 -1.723,0 -0.476,0.474 -0.476,1.248 0,1.722 0.476,0.476 1.248,0.476 1.723,0 0.477,-0.474 0.477,-1.248 0,-1.722 m 3.034,6.48 c 0.476,0.477 1.248,0.477 1.724,0 0.477,-0.475 0.477,-1.248 0,-1.722 -0.476,-0.478 -1.248,-0.478 -1.724,0 -0.476,0.474 -0.476,1.247 0,1.722 m 4.756,-14.27 c 0.476,0.475 1.248,0.475 1.724,0 0.476,-0.477 0.476,-1.248 0,-1.725 -0.476,-0.476 -1.248,-0.476 -1.724,0 -0.476,0.477 -0.476,1.248 0,1.725 m 0.002,19.028 c 0.476,0.477 1.248,0.477 1.724,0 0.475,-0.477 0.475,-1.248 0,-1.725 -0.476,-0.474 -1.248,-0.474 -1.724,0 -0.476,0.477 -0.476,1.248 0,1.725 m 4.756,-14.272 c 0.476,0.477 1.247,0.477 1.724,0 0.475,-0.475 0.475,-1.248 0,-1.722 -0.477,-0.478 -1.248,-0.478 -1.724,0 -0.477,0.474 -0.477,1.247 0,1.722 m 10e-4,19.03 c 0.477,0.475 1.248,0.475 1.725,0 0.475,-0.477 0.475,-1.247 0,-1.725 -0.477,-0.475 -1.248,-0.475 -1.725,0 -0.476,0.478 -0.476,1.248 0,1.725 M -34.326,5.78 c 0.476,0.476 1.248,0.476 1.724,0 0.476,-0.475 0.476,-1.248 0,-1.722 -0.476,-0.478 -1.248,-0.478 -1.724,0 -0.476,0.474 -0.476,1.247 0,1.722 m 0.002,19.029 c 0.476,0.476 1.248,0.476 1.724,0 0.476,-0.476 0.476,-1.248 0,-1.724 -0.476,-0.477 -1.248,-0.477 -1.724,0 -0.476,0.476 -0.476,1.248 0,1.724 m 4.756,-14.271 c 0.476,0.477 1.248,0.477 1.723,0 0.477,-0.475 0.477,-1.248 0,-1.724 -0.475,-0.476 -1.247,-0.476 -1.723,0 -0.476,0.476 -0.476,1.249 0,1.724 m 0.002,19.028 c 0.476,0.476 1.248,0.476 1.723,0 0.477,-0.476 0.477,-1.248 0,-1.722 -0.475,-0.478 -1.247,-0.478 -1.723,0 -0.476,0.474 -0.476,1.246 0,1.722 m 4.755,-14.271 c 0.476,0.476 1.25,0.476 1.724,0 0.477,-0.476 0.477,-1.247 0,-1.724 -0.474,-0.474 -1.248,-0.474 -1.724,0 -0.476,0.477 -0.476,1.248 0,1.724 m 4.758,4.759 c 0.476,0.475 1.247,0.475 1.724,0 0.474,-0.477 0.474,-1.248 0,-1.725 -0.477,-0.474 -1.248,-0.474 -1.724,0 -0.476,0.477 -0.476,1.248 0,1.725 M -49.104,-1.124 c 1.019,-1.021 1.032,-2.659 0.048,-3.701 3.035,-2.676 5.992,-4.33 7.701,-4.33 0.466,0 0.84,0.123 1.097,0.38 l 25.928,25.926 c 1.2,1.201 -0.536,4.939 -3.943,8.803 -1.043,-0.987 -2.687,-0.977 -3.708,0.045 -1.005,1.005 -1.03,2.607 -0.091,3.652 -2.808,2.352 -5.48,3.79 -7.071,3.79 -0.466,0 -0.839,-0.123 -1.097,-0.378 L -56.167,7.135 c -1.136,-1.136 0.359,-4.539 3.404,-8.173 1.045,0.942 2.652,0.92 3.659,-0.086 m -22.314,24.967 c 0.476,0.475 1.248,0.475 1.724,0 0.475,-0.477 0.475,-1.247 0,-1.725 -0.476,-0.475 -1.248,-0.475 -1.724,0 -0.477,0.478 -0.477,1.248 0,1.725 m 4.758,4.758 c 0.475,0.475 1.247,0.475 1.724,0 0.475,-0.477 0.475,-1.249 0,-1.725 -0.477,-0.477 -1.249,-0.477 -1.724,0 -0.477,0.476 -0.477,1.248 0,1.725 m 4.757,4.756 c 0.476,0.476 1.248,0.476 1.724,0 0.476,-0.476 0.476,-1.248 0,-1.722 -0.476,-0.478 -1.248,-0.478 -1.724,0 -0.476,0.474 -0.476,1.246 0,1.722 m 4.757,4.758 c 0.477,0.477 1.249,0.477 1.724,0 0.477,-0.475 0.477,-1.248 0,-1.723 -0.475,-0.477 -1.247,-0.477 -1.724,0 -0.475,0.475 -0.475,1.248 0,1.723 m 4.758,4.758 c 0.476,0.477 1.248,0.477 1.724,0 0.476,-0.477 0.476,-1.248 0,-1.725 -0.476,-0.475 -1.248,-0.475 -1.724,0 -0.476,0.477 -0.476,1.248 0,1.725 m 4.758,4.757 c 0.476,0.476 1.247,0.476 1.724,0 0.475,-0.476 0.475,-1.248 0,-1.724 -0.477,-0.474 -1.248,-0.474 -1.724,0 -0.476,0.476 -0.476,1.248 0,1.724 M -71.064,18.524 c 0.897,0 1.794,0.343 2.479,1.029 l 25.928,25.927 c 1.369,1.37 1.369,3.587 0,4.957 -0.685,0.684 -1.582,1.027 -2.48,1.027 -0.896,0 -1.794,-0.343 -2.478,-1.027 L -73.543,24.511 c -1.369,-1.37 -1.369,-3.59 0,-4.958 0.685,-0.686 1.582,-1.029 2.479,-1.029 M 12.19,-11.553 -11.554,-35.297 c -0.271,-0.27 -0.768,-0.596 -1.589,-0.596 -1.385,0 -3.177,0.934 -4.629,1.873 l -0.892,-0.893 c -0.251,-0.251 -0.71,-0.55 -1.467,-0.55 -3.609,0 -12.353,7.129 -19.419,14.195 l -0.707,0.707 0.707,0.707 4.949,4.951 0.708,0.707 0.707,-0.707 24.984,24.983 -0.707,0.707 0.707,0.707 4.95,4.95 0.707,0.707 0.707,-0.707 C 2.625,11.98 6.52,7.474 9.129,3.749 c 3.97,-5.664 3.516,-7.353 2.678,-8.19 l -0.893,-0.893 c 1.436,-2.219 2.624,-4.871 1.276,-6.219 M -47.02,-29.68 c -1.72,-2.561 -3.145,-5.31 -4.253,-8.174 -1.111,-2.869 -1.758,-5.882 -2.138,-8.908 -0.077,-1.524 -0.262,-3.043 -0.135,-4.566 0.044,-0.76 0.023,-1.524 0.12,-2.276 l 0.322,-2.259 c 0.059,-0.375 0.094,-0.755 0.171,-1.125 l 0.272,-1.109 0.54,-2.214 c 0.458,-1.452 1.003,-2.862 1.515,-4.308 1.172,-2.94 2.088,-6.098 1.942,-9.428 -0.081,-1.653 -0.461,-3.334 -1.214,-4.874 -0.769,-1.531 -1.929,-2.882 -3.352,-3.861 -1.431,-0.969 -3.081,-1.614 -4.876,-1.736 -0.902,-0.031 -1.846,-0.012 -2.865,0.529 -0.239,0.109 -0.526,0.354 -0.714,0.524 l -0.419,0.418 -0.83,0.844 c -4.393,4.539 -8.136,9.642 -11.42,14.987 -3.273,5.343 -6.199,10.93 -8.495,16.817 -2.351,5.864 -3.711,12.107 -4.989,18.133 -0.664,3.01 -1.388,5.969 -2.366,8.824 -0.987,2.847 -2.232,5.588 -3.746,8.187 -1.502,2.607 -3.257,5.074 -5.178,7.421 l -1.473,1.737 -1.541,1.686 c -1.013,1.141 -2.07,2.093 -3.232,3.025 -4.663,3.669 -10.405,6.004 -16.103,8.354 -5.727,2.33 -11.564,4.613 -17.162,7.49 -5.601,2.851 -10.958,6.348 -15.567,10.71 -0.575,0.567 -1.118,1.074 -1.718,1.691 -0.159,0.172 -0.315,0.352 -0.48,0.605 -0.075,0.107 -0.167,0.275 -0.243,0.461 -0.039,0.081 -0.082,0.262 -0.105,0.394 -0.032,0.114 -0.014,0.452 0.053,0.653 0.095,0.272 0.34,0.584 0.53,0.678 0.104,0.069 0.221,0.125 0.328,0.164 0.073,0.021 0.148,0.04 0.223,0.052 0.17,0.033 0.279,0.03 0.372,0.027 0.1,-0.003 0.213,-0.011 0.28,-0.027 0.328,-0.052 0.565,-0.136 0.793,-0.226 0.451,-0.183 0.838,-0.395 1.208,-0.622 l 0.978,-0.589 c 0.639,-0.405 1.317,-0.74 1.976,-1.11 2.689,-1.378 5.527,-2.472 8.473,-3.226 2.939,-0.779 5.968,-1.25 9.021,-1.525 3.039,-0.262 6.17,-0.395 9.185,-0.304 6.024,0.28 12.015,2.705 16.325,7.075 4.324,4.32 7.158,10.149 8.022,16.293 -0.283,-3.091 -1.056,-6.15 -2.304,-9.019 -1.29,-2.842 -2.968,-5.549 -5.149,-7.829 -4.275,-4.669 -10.458,-7.467 -16.796,-7.989 -3.186,-0.188 -6.27,-0.105 -9.417,0.091 -3.131,0.211 -6.267,0.628 -9.347,1.368 -3.084,0.718 -6.096,1.801 -8.96,3.19 -0.031,0.016 -0.063,0.033 -0.094,0.048 4.132,-3.437 8.759,-6.269 13.599,-8.687 5.479,-2.74 11.245,-4.923 17.036,-7.201 2.896,-1.141 5.793,-2.337 8.645,-3.713 2.841,-1.387 5.658,-2.953 8.213,-4.975 1.263,-0.999 2.519,-2.135 3.57,-3.311 l 1.605,-1.744 1.544,-1.805 c 2.017,-2.449 3.885,-5.041 5.486,-7.812 1.599,-2.768 2.921,-5.709 3.954,-8.727 1.023,-3.024 1.762,-6.108 2.422,-9.159 0.66,-3.05 1.259,-6.068 2.029,-9.026 0.756,-2.961 1.671,-5.867 2.746,-8.722 2.151,-5.707 4.941,-11.193 8.09,-16.464 3.17,-5.247 6.707,-10.286 10.847,-14.77 l 0.785,-0.832 0.395,-0.413 c 0.105,-0.08 0.104,-0.108 0.217,-0.163 0.348,-0.225 1.023,-0.319 1.655,-0.293 1.308,0.054 2.666,0.531 3.815,1.277 1.151,0.758 2.095,1.808 2.751,3.034 0.635,1.24 0.997,2.634 1.1,4.076 0.199,2.902 -0.562,5.88 -1.622,8.7 -0.492,1.486 -1.033,2.989 -1.473,4.504 l -0.512,2.319 -0.256,1.159 c -0.069,0.39 -0.092,0.787 -0.14,1.181 l -0.249,2.359 c -0.072,0.787 -0.023,1.582 -0.04,2.371 -0.072,1.583 0.172,3.154 0.311,4.721 0.504,3.11 1.283,6.178 2.521,9.063 2.473,5.745 6.17,11.007 11.043,14.878 -2.349,-2.029 -4.341,-4.432 -6.055,-6.997 m -62.594,91.025 -0.707,0.707 24.216,24.216 0.005,0.003 0.347,-0.345 0.36,-0.362 z m 10.911,14.089 c -0.781,-0.782 -2.048,-0.782 -2.829,0 -0.781,0.78 -0.781,2.046 0,2.829 0.781,0.78 2.048,0.78 2.829,0 0.78,-0.783 0.78,-2.049 0,-2.829 m -16.747,-8.082 24.044,24.043 0.006,0.005 0.353,-0.353 0.354,-0.354 -24.05,-24.048 z m -4.172,4.312 23.902,23.904 0.006,0.005 0.336,-0.336 0.371,-0.371 -23.908,-23.909 z m 8.454,16.233 c 0.781,0.783 2.047,0.783 2.828,0 0.781,-0.781 0.781,-2.046 0,-2.828 -0.781,-0.781 -2.047,-0.781 -2.828,0 -0.781,0.782 -0.781,2.047 0,2.828 m 58.301,-92.784 c -0.821,0.821 -0.983,2.037 -0.509,3.028 -1.296,1.522 -2.367,3.049 -3.101,4.445 -1.607,3.064 -1.103,4.55 -0.398,5.256 l 25.928,25.927 c 0.306,0.306 0.869,0.672 1.804,0.672 1.913,0 4.859,-1.594 7.891,-4.173 0.99,0.476 2.211,0.315 3.032,-0.505 0.805,-0.806 0.979,-1.992 0.538,-2.973 1.55,-1.732 2.825,-3.498 3.661,-5.091 1.608,-3.063 1.104,-4.549 0.398,-5.255 L -39.551,-9.482 c -0.306,-0.308 -0.868,-0.672 -1.804,-0.672 -2.05,0 -5.285,1.815 -8.541,4.729 -0.98,-0.439 -2.167,-0.264 -2.971,0.538 m -21.383,30.105 25.928,25.926 c 0.85,0.851 1.982,1.32 3.185,1.32 1.204,0 2.335,-0.469 3.187,-1.32 1.757,-1.756 1.757,-4.616 0,-6.373 L -67.878,18.846 c -0.851,-0.853 -1.982,-1.322 -3.186,-1.322 -1.204,0 -2.335,0.469 -3.186,1.322 -1.757,1.756 -1.757,4.614 0,6.372 m -17.365,17.364 25.927,25.928 c 0.851,0.85 1.983,1.319 3.186,1.319 1.204,0 2.335,-0.469 3.187,-1.319 1.756,-1.758 1.756,-4.616 0,-6.372 L -85.243,36.21 c -0.851,-0.852 -1.983,-1.319 -3.186,-1.319 -1.204,0 -2.336,0.467 -3.186,1.319 -1.757,1.758 -1.757,4.615 0,6.372 m 19.256,30.386 0.046,0.046 0.708,-0.707 -0.036,-0.036 -24.713,-24.713 -0.707,0.707 z M -92.256,54.62 c -0.781,-0.781 -2.047,-0.781 -2.828,0 -0.781,0.781 -0.781,2.048 0,2.829 0.781,0.781 2.047,0.781 2.828,0 0.781,-0.781 0.781,-2.048 0,-2.829 m 15.202,15.202 c -0.781,-0.781 -2.048,-0.781 -2.828,0 -0.781,0.783 -0.781,2.048 0,2.828 0.78,0.783 2.047,0.783 2.828,0 0.782,-0.78 0.782,-2.045 0,-2.828 m -0.606,8.274 0.133,0.133 0.707,-0.708 -0.121,-0.122 -24.628,-24.628 -0.707,0.709 z m -3.061,2.949 -24.373,-24.373 -0.707,0.707 24.366,24.367 0.007,0.006 0.367,-0.366 z m -0.27,15.294 c 2.122,1.406 4.013,3.123 5.595,5.087 l 0.453,0.56 0.563,-0.527 C -67.725,95.23 -61.123,88.948 -54.604,82.582 -48.065,76.237 -41.605,69.814 -35.17,63.364 -22.313,50.452 -9.636,37.361 2.696,23.926 L 2.958,23.641 2.696,23.399 c -1.79,-1.646 -3.603,-3.27 -5.418,-4.892 1.537,1.72 3.077,3.434 4.635,5.134 -13.346,12.255 -26.352,24.851 -39.181,37.627 -6.451,6.431 -12.874,12.893 -19.218,19.432 -6.206,6.356 -12.33,12.79 -18.405,19.276 -1.695,-1.699 -3.595,-3.191 -5.701,-4.309 -2.318,-1.252 -4.843,-2.062 -7.404,-2.441 2.503,0.665 4.877,1.722 7.005,3.113 m -42.197,3.58 c 0.78,0.78 2.046,0.78 2.828,0 0.781,-0.78 0.781,-2.048 0,-2.829 -0.782,-0.781 -2.048,-0.781 -2.828,0 -0.782,0.781 -0.782,2.049 0,2.829 M 44.549,-61.101 C 97.281,-6.093 76.725,31.809 57.265,51.27 32.044,76.489 1.167,70.48 -20.105,91.751 c -20.338,20.339 -14.679,38.796 -50.912,69.769 -7.306,6.246 -27.635,15.615 -33.116,9.781 -5.479,-5.834 34.884,-33.47 27.46,-56.215 -6.314,-19.344 -22.775,-12.816 -22.775,-12.816 l -1.573,-1.573 -0.011,0.011 0.365,-0.364 -23.725,-23.727 -0.707,0.707 23.719,23.721 -5.759,5.571 0.363,-0.362 -23.528,-23.525 -0.707,0.707 23.522,23.52 -5.485,5.307 0.358,-0.359 -23.338,-23.337 -0.707,0.707 23.332,23.331 -5.931,5.74 -23.234,-23.237 -0.417,0.417 34,-35.491 -1.232,-1.163 c 6.894,-10.43 0.884,-28.814 -14.938,-28.902 -15.821,-0.09 -23.598,3.444 -32.085,11.931 -3.066,3.068 -10.086,11.435 -13.347,8.75 -3.005,-2.473 -4.508,-10.339 2.034,-20.063 18.28,-27.174 50.028,-28.107 60.693,-39.244 18.905,-19.74 7.543,-28.757 26.398,-60.812 18.294,-31.098 53.242,-60.429 116.756,-0.709 0.188,-0.386 0.43,-0.747 0.741,-1.057 1.96,-1.96 5.661,-1.441 8.264,1.164 2.604,2.602 3.125,6.302 1.164,8.263 -0.293,0.293 -0.628,0.525 -0.988,0.707 m -400.522,399.842 c -1.302,1.301 -1.302,3.412 0,4.714 1.302,1.302 3.412,1.302 4.714,0 1.301,-1.302 1.301,-3.413 0,-4.714 -1.302,-1.302 -3.412,-1.302 -4.714,0 m 12.579,-6.458 c -1.301,1.302 -1.301,3.412 0,4.714 1.302,1.301 3.413,1.301 4.715,0 1.302,-1.302 1.302,-3.412 0,-4.714 -1.302,-1.302 -3.413,-1.302 -4.715,0 m 12.581,-6.459 c -1.302,1.302 -1.302,3.413 0,4.715 1.301,1.301 3.412,1.301 4.713,0 1.302,-1.302 1.302,-3.413 0,-4.715 -1.301,-1.302 -3.412,-1.302 -4.713,0 m 12.579,-6.458 c -1.302,1.302 -1.302,3.412 0,4.714 1.302,1.302 3.412,1.302 4.714,0 1.302,-1.302 1.302,-3.412 0,-4.714 -1.302,-1.302 -3.412,-1.302 -4.714,0 m 12.58,-6.458 c -1.302,1.302 -1.302,3.412 0,4.714 1.301,1.302 3.412,1.302 4.714,0 1.302,-1.302 1.302,-3.412 0,-4.714 -1.302,-1.302 -3.413,-1.302 -4.714,0 m 12.58,-6.458 c -1.302,1.301 -1.302,3.412 0,4.714 1.302,1.301 3.412,1.301 4.714,0 1.301,-1.302 1.301,-3.413 0,-4.714 -1.302,-1.302 -3.412,-1.302 -4.714,0 m -71.358,23.832 c 1.302,1.301 3.412,1.301 4.714,0 1.301,-1.302 1.301,-3.412 0,-4.714 -1.302,-1.302 -3.412,-1.302 -4.714,0 -1.302,1.302 -1.302,3.412 0,4.714 m 12.579,-6.458 c 1.302,1.301 3.413,1.301 4.714,0 1.302,-1.302 1.302,-3.413 0,-4.715 -1.301,-1.3 -3.412,-1.3 -4.714,0 -1.301,1.302 -1.301,3.413 0,4.715 m 12.581,-6.459 c 1.301,1.302 3.412,1.302 4.713,0 1.302,-1.301 1.302,-3.412 0,-4.714 -1.301,-1.3 -3.412,-1.3 -4.713,0 -1.302,1.302 -1.302,3.413 0,4.714 m 12.579,-6.458 c 1.302,1.303 3.412,1.303 4.714,0 1.302,-1.302 1.302,-3.412 0,-4.714 -1.302,-1.3 -3.412,-1.3 -4.714,0 -1.302,1.302 -1.302,3.412 0,4.714 m 12.58,-6.458 c 1.301,1.301 3.412,1.301 4.714,0 1.302,-1.302 1.302,-3.412 0,-4.714 -1.302,-1.301 -3.413,-1.301 -4.714,0 -1.302,1.302 -1.302,3.412 0,4.714 m 12.58,-6.458 c 1.302,1.301 3.412,1.301 4.714,0 1.301,-1.302 1.301,-3.412 0,-4.714 -1.302,-1.301 -3.412,-1.301 -4.714,0 -1.302,1.302 -1.302,3.412 0,4.714 m -35.244,-24.835 c 1.038,-4.19 4.85,-7.094 9.167,-7.102 9.843,-0.022 24.132,0.294 24.132,0.294 l 16.44,16.44 -0.942,18.62 c -13.2,6.6 -82.732,40.659 -82.732,40.659 -4.02,2.253 -15.91,-9.192 -7.955,-18.208 7.372,-8.355 34.934,-22.63 41.89,-50.703 m 70.702,-12.775 -0.341,0.342 14.632,-14.159 -18.296,-18.294 -14.099,14.716 0.355,-0.354 z m 116.45,-157.199 22.396,22.393 0.707,-0.707 -22.396,-22.393 z m -6.717,6.715 22.395,22.396 0.707,-0.707 -22.395,-22.396 z m 23.571,-0.232 c -0.781,-0.78 -2.046,-0.78 -2.828,0 -0.781,0.78 -0.781,2.047 0,2.828 0.782,0.781 2.047,0.781 2.828,0 0.782,-0.781 0.782,-2.048 0,-2.828 m 12.792,9.374 -22.02,21.307 0.362,-0.364 -22.395,-22.394 -0.351,0.35 21.188,-22.116 z m -167.294,161.863 20.485,-19.819 -17.735,-17.736 -19.721,20.585 z m 31.151,-66.606 18.31,18.309 0.708,-0.707 -18.311,-18.309 z m 1.133,17.587 c 0.781,0.781 2.049,0.781 2.828,0 0.782,-0.781 0.782,-2.047 0,-2.828 -0.779,-0.782 -2.047,-0.782 -2.828,0 -0.782,0.781 -0.782,2.047 0,2.828 m 26.406,-26.404 c 0.781,0.78 2.047,0.78 2.828,0 0.781,-0.783 0.781,-2.049 0,-2.83 -0.781,-0.781 -2.047,-0.781 -2.828,0 -0.781,0.781 -0.781,2.047 0,2.83 m 22.921,-22.922 c 0.782,0.781 2.048,0.781 2.829,0 0.781,-0.783 0.781,-2.049 0,-2.828 -0.781,-0.783 -2.047,-0.783 -2.829,0 -0.78,0.779 -0.78,2.045 0,2.828 m 21.015,-21.016 c 0.781,0.781 2.047,0.781 2.829,0 0.78,-0.781 0.78,-2.047 0,-2.828 -0.782,-0.781 -2.048,-0.781 -2.829,0 -0.781,0.781 -0.781,2.047 0,2.828 m 13.497,18.188 c -0.782,-0.783 -2.048,-0.783 -2.829,0 -0.781,0.779 -0.781,2.045 0,2.828 0.781,0.781 2.047,0.781 2.829,0 0.781,-0.783 0.781,-2.049 0,-2.828 m 22.921,22.92 c -0.781,-0.781 -2.046,-0.781 -2.828,0 -0.781,0.781 -0.781,2.047 0,2.83 0.782,0.78 2.047,0.78 2.828,0 0.782,-0.783 0.782,-2.049 0,-2.83 m 8.523,29.249 0.707,0.707 18.31,-18.309 -0.707,-0.707 z m 15.055,-0.015 c 0.781,0.781 2.047,0.781 2.828,0 0.781,-0.781 0.781,-2.047 0,-2.828 -0.781,-0.782 -2.047,-0.782 -2.828,0 -0.782,0.781 -0.782,2.047 0,2.828 m -25.696,-83.461 -8.616,8.336 0.345,-0.345 -21.311,-21.311 -0.707,0.707 21.304,21.305 -8.078,7.818 60.343,62.987 -0.365,-0.364 -18.308,18.308 0.366,0.367 -26.758,-25.889 19.184,-19.184 -0.707,-0.707 -19.19,19.19 0.341,0.34 -12.326,-11.925 19.596,-19.596 -0.707,-0.707 -19.602,19.603 0.346,0.345 -11.433,-11.061 19.979,-19.98 -0.707,-0.707 -19.985,19.985 0.356,0.356 -10.664,-10.317 20.337,-20.337 -0.408,-0.408 -0.234,0.228 0.353,-0.354 -21.02,-21.017 -0.707,0.707 21.015,21.012 -9.597,9.285 0.366,-0.366 -20.697,-20.697 -0.707,0.707 20.691,20.692 -7.984,7.724 -2.122,2.121 0.339,0.339 -0.38,-0.367 -0.394,0.382 0.352,-0.354 -20.342,-20.341 -0.707,0.707 20.336,20.337 -10.663,10.317 0.355,-0.356 -19.984,-19.985 -0.707,0.707 19.977,19.98 -11.431,11.06 0.346,-0.344 -19.602,-19.603 -0.707,0.707 19.596,19.596 -12.341,11.94 0.355,-0.355 -19.189,-19.19 -0.706,0.707 19.181,19.184 -26.741,25.874 0.351,-0.352 -18.309,-18.308 -0.366,0.366 60.345,-62.989 -8.078,-7.818 21.303,-21.305 -0.707,-0.707 -21.309,21.311 0.343,0.347 -8.616,-8.338 22.083,-22.084 15.976,16.678 15.976,-16.678 z m -14.505,-21.205 c 0.782,0.78 2.048,0.78 2.83,0 0.78,-0.781 0.78,-2.047 0,-2.828 -0.782,-0.783 -2.048,-0.783 -2.83,0 -0.781,0.781 -0.781,2.047 0,2.828 m 13.789,13.787 c 0.781,0.781 2.046,0.781 2.828,0 0.781,-0.781 0.781,-2.048 0,-2.828 -0.782,-0.781 -2.047,-0.781 -2.828,0 -0.782,0.78 -0.782,2.047 0,2.828 m -21.026,-15.022 7.357,-7.678 22.382,22.382 -7.649,7.4 0.365,-0.365 -22.095,-22.098 z M -351.3,-23.788 c -0.476,-0.476 -1.248,-0.476 -1.724,0 -0.476,0.477 -0.476,1.248 0,1.725 0.476,0.475 1.248,0.475 1.724,0 0.476,-0.477 0.476,-1.248 0,-1.725 m -4.758,4.759 c -0.476,-0.478 -1.247,-0.478 -1.723,0 -0.476,0.474 -0.476,1.248 0,1.722 0.476,0.477 1.247,0.477 1.723,0 0.476,-0.474 0.476,-1.248 0,-1.722 m -4.757,4.758 c -0.476,-0.478 -1.248,-0.478 -1.724,0 -0.476,0.474 -0.476,1.248 0,1.722 0.476,0.477 1.248,0.477 1.724,0 0.476,-0.474 0.476,-1.248 0,-1.722 m -4.758,4.756 c -0.476,-0.475 -1.247,-0.475 -1.723,0 -0.476,0.476 -0.476,1.247 0,1.724 0.476,0.477 1.247,0.477 1.723,0 0.476,-0.477 0.476,-1.248 0,-1.724 m -4.757,4.757 c -0.476,-0.474 -1.248,-0.474 -1.724,0 -0.476,0.478 -0.476,1.248 0,1.726 0.476,0.474 1.248,0.474 1.724,0 0.476,-0.478 0.476,-1.248 0,-1.726 M -375.088,0 c -0.476,-0.476 -1.247,-0.476 -1.724,0 -0.476,0.478 -0.476,1.248 0,1.725 0.477,0.475 1.248,0.475 1.724,0 0.476,-0.477 0.476,-1.247 0,-1.725 m 31.511,-16.147 c -0.699,-0.46 -1.508,-0.692 -2.317,-0.692 -0.809,0 -1.618,0.232 -2.317,0.692 -0.234,0.152 -0.455,0.333 -0.659,0.537 l -20.447,20.446 c -0.818,0.818 -1.227,1.896 -1.227,2.976 0,0.809 0.23,1.619 0.69,2.317 0.153,0.232 0.333,0.454 0.537,0.658 l -4.95,4.95 c -9.146,-9.145 -15.254,-17.862 -13.644,-19.47 l 1.474,-1.475 c -1.852,-2.666 -2.647,-4.849 -1.858,-5.638 l 23.744,-23.744 c 0.205,-0.205 0.505,-0.303 0.883,-0.303 1.074,0 2.782,0.791 4.754,2.163 l 1.474,-1.476 c 0.173,-0.173 0.429,-0.257 0.759,-0.257 2.734,0 10.552,5.741 18.712,13.902 l -4.949,4.951 c -0.205,-0.204 -0.426,-0.385 -0.659,-0.537 m 50.57,60.168 c -0.476,-0.477 -1.248,-0.477 -1.724,0 -0.476,0.475 -0.476,1.248 0,1.723 0.476,0.477 1.248,0.477 1.724,0 0.476,-0.475 0.476,-1.248 0,-1.723 m -4.758,4.756 c -0.476,-0.474 -1.248,-0.474 -1.724,0 -0.476,0.477 -0.476,1.248 0,1.725 0.476,0.477 1.248,0.477 1.724,0 0.476,-0.477 0.476,-1.248 0,-1.725 m -4.757,4.758 c -0.477,-0.474 -1.248,-0.474 -1.724,0 -0.476,0.478 -0.476,1.248 0,1.725 0.476,0.475 1.247,0.475 1.724,0 0.476,-0.477 0.476,-1.247 0,-1.725 m -4.758,4.758 c -0.476,-0.477 -1.248,-0.477 -1.724,0 -0.476,0.476 -0.476,1.248 0,1.725 0.476,0.475 1.248,0.475 1.724,0 0.476,-0.477 0.476,-1.249 0,-1.725 m -4.758,4.759 c -0.476,-0.478 -1.247,-0.478 -1.723,0 -0.476,0.474 -0.476,1.246 0,1.722 0.476,0.476 1.247,0.476 1.723,0 0.476,-0.476 0.476,-1.248 0,-1.722 m 22.065,-22.066 c 0.475,0.476 1.247,0.476 1.723,0 0.477,-0.474 0.477,-1.248 0,-1.722 -0.476,-0.478 -1.248,-0.478 -1.723,0 -0.476,0.474 -0.476,1.248 0,1.722 m 1.59,-5.095 c 0.898,0 1.795,0.34 2.479,1.026 1.37,1.369 1.37,3.588 0,4.958 l -25.927,25.928 c -0.685,0.683 -1.582,1.026 -2.479,1.026 -0.898,0 -1.794,-0.343 -2.479,-1.026 -1.37,-1.369 -1.37,-3.59 0,-4.958 l 25.927,-25.928 c 0.685,-0.686 1.582,-1.026 2.479,-1.026 m -70.1,-15.837 c 0.476,0.475 1.248,0.475 1.724,0 0.476,-0.477 0.476,-1.248 0,-1.725 -0.476,-0.474 -1.248,-0.474 -1.724,0 -0.476,0.477 -0.476,1.248 0,1.725 m 4.758,-4.759 c 0.476,0.476 1.248,0.476 1.724,0 0.476,-0.476 0.476,-1.247 0,-1.724 -0.476,-0.474 -1.248,-0.474 -1.724,0 -0.476,0.477 -0.476,1.248 0,1.724 m 4.756,14.271 c 0.476,0.476 1.247,0.476 1.723,0 0.476,-0.476 0.476,-1.248 0,-1.722 -0.476,-0.478 -1.247,-0.478 -1.723,0 -0.476,0.474 -0.476,1.246 0,1.722 m 1.725,-20.752 c -0.476,-0.476 -1.248,-0.476 -1.723,0 -0.476,0.476 -0.476,1.249 0,1.724 0.475,0.477 1.247,0.477 1.723,0 0.476,-0.475 0.476,-1.248 0,-1.724 m 3.032,15.995 c 0.476,0.476 1.248,0.476 1.724,0 0.476,-0.476 0.476,-1.248 0,-1.724 -0.476,-0.477 -1.248,-0.477 -1.724,0 -0.476,0.476 -0.476,1.248 0,1.724 m 1.726,-20.751 c -0.476,-0.478 -1.248,-0.478 -1.724,0 -0.476,0.474 -0.476,1.247 0,1.722 0.476,0.476 1.248,0.476 1.724,0 0.476,-0.475 0.476,-1.248 0,-1.722 m 3.032,15.994 c 0.476,0.475 1.247,0.475 1.724,0 0.476,-0.477 0.476,-1.247 0,-1.725 -0.477,-0.475 -1.248,-0.475 -1.724,0 -0.476,0.478 -0.476,1.248 0,1.725 m 1.725,-20.752 c -0.476,-0.478 -1.247,-0.478 -1.723,0 -0.476,0.474 -0.476,1.247 0,1.722 0.476,0.477 1.247,0.477 1.723,0 0.477,-0.475 0.477,-1.248 0,-1.722 m 3.032,15.994 c 0.476,0.477 1.248,0.477 1.724,0 0.476,-0.477 0.476,-1.248 0,-1.725 -0.476,-0.474 -1.248,-0.474 -1.724,0 -0.476,0.477 -0.476,1.248 0,1.725 m 1.726,-20.753 c -0.476,-0.476 -1.248,-0.476 -1.724,0 -0.476,0.477 -0.476,1.248 0,1.725 0.476,0.475 1.248,0.475 1.724,0 0.476,-0.477 0.476,-1.248 0,-1.725 m 3.032,15.995 c 0.476,0.477 1.248,0.477 1.724,0 0.476,-0.475 0.476,-1.248 0,-1.722 -0.476,-0.478 -1.248,-0.478 -1.724,0 -0.476,0.474 -0.476,1.247 0,1.722 m 4.757,-4.758 c 0.476,0.476 1.248,0.476 1.724,0 0.477,-0.474 0.477,-1.248 0,-1.722 -0.476,-0.478 -1.248,-0.478 -1.724,0 -0.475,0.474 -0.475,1.248 0,1.722 m -37.3,11.373 25.928,-25.926 c 0.257,-0.257 0.631,-0.38 1.097,-0.38 1.71,0 4.667,1.654 7.701,4.33 -0.984,1.042 -0.971,2.68 0.049,3.701 1.006,1.006 2.613,1.028 3.658,0.086 3.045,3.635 4.54,7.037 3.404,8.173 l -25.927,25.928 c -0.257,0.255 -0.631,0.378 -1.097,0.378 -1.591,-0.001 -4.263,-1.438 -7.071,-3.79 0.938,-1.045 0.915,-2.647 -0.09,-3.652 -1.022,-1.022 -2.666,-1.032 -3.708,-0.045 -3.408,-3.864 -5.144,-7.602 -3.944,-8.803 m 55.364,4.967 c -0.476,0.478 -0.476,1.248 0,1.725 0.476,0.475 1.248,0.475 1.724,0 0.477,-0.477 0.477,-1.247 0,-1.725 -0.476,-0.475 -1.248,-0.475 -1.724,0 m -3.033,4.758 c -0.476,-0.477 -1.248,-0.477 -1.724,0 -0.476,0.476 -0.476,1.248 0,1.725 0.476,0.475 1.248,0.475 1.724,0 0.476,-0.477 0.476,-1.249 0,-1.725 m -4.758,4.759 c -0.476,-0.478 -1.248,-0.478 -1.724,0 -0.476,0.474 -0.476,1.246 0,1.722 0.476,0.476 1.248,0.476 1.724,0 0.476,-0.476 0.476,-1.248 0,-1.722 m -4.758,4.757 c -0.476,-0.477 -1.248,-0.477 -1.723,0 -0.476,0.475 -0.476,1.248 0,1.723 0.475,0.477 1.247,0.477 1.723,0 0.477,-0.475 0.477,-1.248 0,-1.723 m -4.757,4.756 c -0.476,-0.475 -1.248,-0.475 -1.724,0 -0.476,0.477 -0.476,1.248 0,1.725 0.476,0.477 1.248,0.477 1.724,0 0.476,-0.477 0.476,-1.248 0,-1.725 m -4.758,4.758 c -0.476,-0.474 -1.248,-0.474 -1.724,0 -0.475,0.476 -0.475,1.248 0,1.724 0.476,0.476 1.248,0.476 1.724,0 0.476,-0.476 0.476,-1.248 0,-1.724 m 25.913,-26.353 c 1.37,1.368 1.37,3.588 0,4.958 l -25.927,25.926 c -0.685,0.684 -1.582,1.027 -2.479,1.027 -0.898,0 -1.795,-0.343 -2.479,-1.027 -1.37,-1.37 -1.37,-3.587 0,-4.957 l 25.927,-25.927 c 0.685,-0.686 1.582,-1.029 2.479,-1.029 0.897,0 1.794,0.343 2.479,1.029 m 277.716,319.188 c -1.302,1.301 -1.302,3.412 0,4.714 1.302,1.302 3.412,1.302 4.714,0 1.302,-1.302 1.302,-3.413 0,-4.714 -1.302,-1.302 -3.412,-1.302 -4.714,0 m -12.58,-6.458 c -1.302,1.302 -1.302,3.412 0,4.714 1.302,1.301 3.413,1.301 4.715,0 1.302,-1.302 1.302,-3.412 0,-4.714 -1.302,-1.302 -3.413,-1.302 -4.715,0 m -12.579,-6.459 c -1.302,1.302 -1.302,3.413 0,4.715 1.302,1.301 3.412,1.301 4.714,0 1.302,-1.302 1.302,-3.413 0,-4.715 -1.302,-1.302 -3.412,-1.302 -4.714,0 m -12.58,-6.458 c -1.302,1.302 -1.302,3.412 0,4.714 1.302,1.302 3.412,1.302 4.714,0 1.302,-1.302 1.302,-3.412 0,-4.714 -1.302,-1.302 -3.412,-1.302 -4.714,0 m -12.58,-6.458 c -1.302,1.302 -1.302,3.412 0,4.714 1.302,1.302 3.412,1.302 4.714,0 1.302,-1.302 1.302,-3.412 0,-4.714 -1.302,-1.302 -3.412,-1.302 -4.714,0 m -12.579,-6.458 c -1.302,1.301 -1.302,3.412 0,4.714 1.301,1.301 3.412,1.301 4.714,0 1.301,-1.302 1.301,-3.413 0,-4.714 -1.302,-1.302 -3.413,-1.302 -4.714,0 m 13.173,-13.173 c -1.302,-1.301 -3.412,-1.301 -4.714,0 -1.302,1.302 -1.302,3.412 0,4.714 1.302,1.301 3.412,1.301 4.714,0 1.301,-1.302 1.301,-3.412 0,-4.714 m 7.865,11.172 c 1.302,1.301 3.412,1.301 4.714,0 1.302,-1.302 1.302,-3.412 0,-4.714 -1.302,-1.301 -3.412,-1.301 -4.714,0 -1.302,1.302 -1.302,3.412 0,4.714 m 12.58,6.458 c 1.302,1.303 3.412,1.303 4.714,0 1.302,-1.302 1.302,-3.412 0,-4.714 -1.302,-1.3 -3.412,-1.3 -4.714,0 -1.302,1.302 -1.302,3.412 0,4.714 m 12.58,6.458 c 1.302,1.302 3.412,1.302 4.714,0 1.302,-1.301 1.302,-3.412 0,-4.714 -1.302,-1.3 -3.412,-1.3 -4.714,0 -1.302,1.302 -1.302,3.413 0,4.714 m 12.579,6.459 c 1.302,1.301 3.413,1.301 4.715,0 1.302,-1.302 1.302,-3.413 0,-4.715 -1.302,-1.3 -3.413,-1.3 -4.715,0 -1.302,1.302 -1.302,3.413 0,4.715 m 12.58,6.458 c 1.302,1.301 3.412,1.301 4.714,0 1.302,-1.302 1.302,-3.412 0,-4.714 -1.302,-1.302 -3.412,-1.302 -4.714,0 -1.302,1.302 -1.302,3.412 0,4.714 m -32.108,-64.228 c 4.317,0.008 8.129,2.912 9.168,7.102 6.955,28.073 34.517,42.348 41.889,50.703 7.955,9.016 -3.935,20.461 -7.955,18.208 0,0 -69.532,-34.059 -82.731,-40.659 l -0.943,-18.62 16.44,-16.44 c 0,0 14.289,-0.316 24.132,-0.294 m -43.086,-22.707 -17.735,17.736 20.485,19.819 16.97,-16.97 z m -14.444,-15.077 -18.296,18.295 14.632,14.158 -0.34,-0.342 17.749,-17.749 0.352,0.353 z m -119.016,-87.266 c 0.781,-0.781 0.781,-2.048 0,-2.828 -0.78,-0.781 -2.047,-0.781 -2.829,0 -0.781,0.78 -0.781,2.047 0,2.828 0.782,0.781 2.049,0.781 2.829,0 m 10.959,-13.787 c 0.781,0.78 2.047,0.78 2.829,0 0.779,-0.781 0.779,-2.047 0,-2.828 -0.782,-0.783 -2.048,-0.783 -2.829,0 -0.78,0.781 -0.78,2.047 0,2.828 m -19.673,13.469 22.382,-22.382 7.345,7.667 -0.347,-0.348 -22.096,22.098 0.352,0.351 z m 13.993,-30.789 -0.707,-0.707 -22.395,22.396 0.707,0.707 z m -7.424,-7.422 -22.396,22.393 0.707,0.707 22.396,-22.393 z m -13.32,7.19 c -0.781,-0.78 -2.047,-0.78 -2.829,0 -0.779,0.78 -0.779,2.047 0,2.828 0.782,0.781 2.048,0.781 2.829,0 0.78,-0.781 0.78,-2.048 0,-2.828 m -15.62,9.374 23.217,-23.217 21.196,22.126 -0.36,-0.36 -22.395,22.394 0.364,0.364 z m 36.773,-90.72 c -0.022,-0.132 -0.065,-0.313 -0.104,-0.394 -0.077,-0.186 -0.167,-0.354 -0.244,-0.461 -0.164,-0.253 -0.321,-0.433 -0.48,-0.605 -0.599,-0.617 -1.142,-1.124 -1.716,-1.691 -4.611,-4.362 -9.967,-7.859 -15.569,-10.71 -5.598,-2.877 -11.435,-5.16 -17.162,-7.49 -5.698,-2.35 -11.439,-4.685 -16.102,-8.354 -1.164,-0.932 -2.22,-1.884 -3.233,-3.025 l -1.541,-1.686 -1.474,-1.737 c -1.919,-2.347 -3.675,-4.814 -5.177,-7.421 -1.513,-2.599 -2.759,-5.34 -3.746,-8.187 -0.978,-2.855 -1.702,-5.814 -2.366,-8.824 -1.278,-6.026 -2.637,-12.269 -4.989,-18.133 -2.296,-5.887 -5.222,-11.474 -8.495,-16.817 -3.283,-5.345 -7.026,-10.448 -11.42,-14.987 l -0.83,-0.844 -0.419,-0.418 c -0.188,-0.17 -0.475,-0.415 -0.714,-0.524 -1.019,-0.541 -1.963,-0.56 -2.864,-0.529 -1.796,0.122 -3.445,0.767 -4.876,1.736 -1.424,0.979 -2.583,2.33 -3.353,3.861 -0.753,1.54 -1.133,3.221 -1.213,4.874 -0.146,3.33 0.769,6.488 1.941,9.428 0.513,1.446 1.058,2.856 1.516,4.308 l 0.539,2.214 0.272,1.109 c 0.077,0.37 0.112,0.75 0.171,1.125 l 0.322,2.259 c 0.098,0.752 0.075,1.516 0.12,2.276 0.127,1.523 -0.058,3.042 -0.134,4.566 -0.381,3.026 -1.028,6.039 -2.138,8.908 -1.109,2.864 -2.534,5.613 -4.254,8.174 -1.714,2.565 -3.706,4.968 -6.056,6.997 4.874,-3.871 8.571,-9.133 11.044,-14.878 1.238,-2.885 2.018,-5.953 2.521,-9.063 0.139,-1.567 0.383,-3.138 0.311,-4.721 -0.017,-0.789 0.032,-1.584 -0.04,-2.371 l -0.249,-2.359 c -0.048,-0.394 -0.071,-0.791 -0.14,-1.181 l -0.255,-1.159 -0.513,-2.319 c -0.439,-1.515 -0.981,-3.018 -1.473,-4.504 -1.059,-2.82 -1.821,-5.798 -1.622,-8.7 0.103,-1.442 0.465,-2.836 1.1,-4.076 0.656,-1.226 1.601,-2.276 2.752,-3.034 1.148,-0.746 2.507,-1.223 3.814,-1.277 0.632,-0.026 1.307,0.068 1.655,0.293 0.114,0.055 0.112,0.083 0.217,0.163 l 0.396,0.413 0.784,0.832 c 4.141,4.484 7.678,9.523 10.847,14.77 3.148,5.271 5.939,10.757 8.09,16.464 1.075,2.855 1.99,5.761 2.746,8.722 0.77,2.958 1.369,5.976 2.029,9.026 0.66,3.051 1.399,6.135 2.422,9.159 1.033,3.018 2.355,5.959 3.954,8.727 1.601,2.771 3.469,5.363 5.486,7.812 l 1.543,1.805 1.608,1.744 c 1.049,1.176 2.304,2.312 3.568,3.311 2.555,2.022 5.372,3.588 8.213,4.975 2.852,1.376 5.749,2.572 8.644,3.713 5.791,2.278 11.558,4.461 17.038,7.201 4.84,2.418 9.466,5.25 13.598,8.687 -0.031,-0.015 -0.063,-0.032 -0.094,-0.048 -2.864,-1.389 -5.875,-2.472 -8.959,-3.19 -3.083,-0.74 -6.215,-1.157 -9.348,-1.368 -3.147,-0.196 -6.231,-0.279 -9.416,-0.091 -6.34,0.522 -12.522,3.32 -16.797,7.989 -2.182,2.28 -3.859,4.987 -5.148,7.829 -1.249,2.869 -2.021,5.928 -2.305,9.019 0.864,-6.144 3.698,-11.973 8.021,-16.293 4.311,-4.37 10.302,-6.795 16.326,-7.075 3.015,-0.091 6.146,0.042 9.185,0.304 3.053,0.275 6.082,0.746 9.023,1.525 2.944,0.754 5.783,1.848 8.471,3.226 0.659,0.37 1.337,0.705 1.977,1.11 l 0.977,0.589 c 0.369,0.227 0.757,0.439 1.207,0.622 0.23,0.09 0.466,0.174 0.793,0.226 0.069,0.016 0.18,0.024 0.282,0.027 0.091,0.003 0.203,0.006 0.371,-0.027 0.076,-0.012 0.151,-0.031 0.222,-0.052 0.11,-0.039 0.225,-0.095 0.329,-0.164 0.19,-0.094 0.435,-0.406 0.531,-0.678 0.065,-0.201 0.086,-0.539 0.052,-0.653 m -117.202,-49.587 c -7.065,-7.066 -15.81,-14.195 -19.419,-14.195 -0.757,0 -1.215,0.299 -1.466,0.55 l -0.893,0.893 c -1.451,-0.939 -3.243,-1.873 -4.628,-1.873 -0.822,0 -1.318,0.326 -1.59,0.596 l -23.744,23.744 c -1.349,1.348 -0.16,4 1.276,6.219 l -0.893,0.893 c -0.838,0.837 -1.291,2.526 2.678,8.19 2.609,3.725 6.504,8.231 10.967,12.695 l 0.707,0.707 0.707,-0.707 4.95,-4.95 0.707,-0.707 -0.707,-0.707 24.985,-24.983 0.707,0.707 0.707,-0.707 4.949,-4.951 0.707,-0.707 z m -42.246,45.194 c 12.332,13.435 25.009,26.526 37.866,39.438 6.434,6.45 12.895,12.873 19.434,19.218 6.519,6.366 13.121,12.648 19.776,18.877 l 0.563,0.527 0.452,-0.56 c 1.583,-1.964 3.475,-3.681 5.596,-5.087 2.129,-1.391 4.503,-2.448 7.006,-3.113 -2.562,0.379 -5.087,1.189 -7.405,2.441 -2.105,1.118 -4.006,2.61 -5.701,4.309 -6.075,-6.486 -12.199,-12.92 -18.404,-19.276 -6.345,-6.539 -12.768,-13.001 -19.219,-19.432 -12.829,-12.776 -25.835,-25.372 -39.181,-37.627 1.558,-1.7 3.098,-3.414 4.635,-5.134 -1.815,1.622 -3.628,3.246 -5.418,4.892 l -0.262,0.242 z m 94.097,67.474 0.006,-0.004 24.043,-24.044 -0.707,-0.707 -24.049,24.048 0.369,0.37 z m 4.313,4.173 0.006,-0.005 23.904,-23.904 -0.708,-0.707 -23.909,23.909 0.358,0.36 z m 12.626,-7.676 c 0.782,0.783 2.047,0.783 2.829,0 0.781,-0.781 0.781,-2.046 0,-2.828 -0.782,-0.781 -2.047,-0.781 -2.829,0 -0.781,0.782 -0.781,2.047 0,2.828 m -9.636,-9.634 c 0.781,0.78 2.046,0.78 2.828,0 0.781,-0.783 0.781,-2.049 0,-2.829 -0.782,-0.782 -2.047,-0.782 -2.828,0 -0.782,0.78 -0.782,2.046 0,2.829 m 10.91,-16.918 -24.221,24.219 0.362,0.364 0.345,0.343 0.006,-0.003 24.215,-24.216 z m -29.732,8.477 c -0.781,-0.781 -2.047,-0.781 -2.828,0 -0.781,0.783 -0.781,2.048 0,2.828 0.781,0.783 2.047,0.783 2.828,0 0.782,-0.78 0.782,-2.045 0,-2.828 m 15.202,-15.202 c -0.781,-0.781 -2.047,-0.781 -2.828,0 -0.781,0.781 -0.781,2.048 0,2.829 0.781,0.781 2.047,0.781 2.828,0 0.781,-0.781 0.781,-2.048 0,-2.829 m -14.022,26.768 0.366,0.364 0.007,-0.006 24.366,-24.367 -0.707,-0.707 -24.373,24.373 z m -4.241,-3.867 0.707,0.708 0.133,-0.133 24.616,-24.616 -0.707,-0.709 -24.628,24.628 z m -5.215,-5.214 0.707,0.707 0.047,-0.046 24.702,-24.703 -0.707,-0.707 -24.714,24.713 z m -12.29,-10.169 c -0.851,0.85 -1.32,1.981 -1.32,3.185 0,1.203 0.469,2.335 1.32,3.187 0.851,0.85 1.982,1.319 3.186,1.319 1.204,0 2.335,-0.469 3.186,-1.319 l 25.927,-25.928 c 1.757,-1.757 1.757,-4.614 10e-4,-6.372 -0.852,-0.852 -1.983,-1.319 -3.187,-1.319 -1.203,0 -2.335,0.467 -3.186,1.319 z m 8.562,-43.292 -25.927,25.925 c -0.851,0.852 -1.32,1.984 -1.32,3.187 0,1.203 0.469,2.335 1.32,3.186 0.851,0.851 1.982,1.32 3.186,1.32 1.203,0 2.335,-0.469 3.186,-1.32 l 25.927,-25.926 c 1.757,-1.758 1.757,-4.616 0,-6.372 -0.851,-0.853 -1.982,-1.322 -3.186,-1.322 -1.203,0 -2.335,0.469 -3.186,1.322 m -49.658,10.917 c 0.821,0.82 2.042,0.981 3.032,0.505 3.032,2.578 5.977,4.172 7.891,4.173 0.935,0 1.498,-0.366 1.804,-0.672 l 25.928,-25.927 c 0.706,-0.706 1.209,-2.192 -0.398,-5.256 -0.733,-1.396 -1.805,-2.923 -3.101,-4.445 0.474,-0.991 0.311,-2.207 -0.508,-3.028 -0.805,-0.802 -1.992,-0.977 -2.971,-0.538 -3.257,-2.914 -6.491,-4.729 -8.542,-4.729 -0.936,0 -1.498,0.364 -1.804,0.672 l -25.928,25.926 c -0.706,0.706 -1.209,2.192 0.398,5.255 0.837,1.593 2.111,3.359 3.661,5.091 -0.441,0.981 -0.266,2.167 0.538,2.973 m 104.969,67.327 c -0.78,-0.781 -2.047,-0.781 -2.828,0 -0.78,0.781 -0.78,2.049 0,2.829 0.781,0.78 2.048,0.78 2.828,0 0.781,-0.78 0.781,-2.048 0,-2.829 M -206.3,50.65 c -3.26,2.685 -10.28,-5.682 -13.346,-8.75 -8.487,-8.487 -16.264,-12.021 -32.085,-11.931 -15.823,0.088 -21.832,18.472 -14.938,28.902 l -1.232,1.163 33.987,35.48 -0.403,-0.406 -23.235,23.237 -5.929,-5.739 23.33,-23.332 -0.707,-0.707 -23.336,23.337 0.357,0.36 -5.484,-5.308 23.52,-23.52 -0.707,-0.707 -23.527,23.525 0.363,0.363 -5.761,-5.573 23.721,-23.72 -0.707,-0.707 -23.727,23.727 0.353,0.351 0.002,0.002 -1.573,1.573 c 0,0 -16.46,-6.528 -22.775,12.816 -7.424,22.745 32.94,50.381 27.46,56.215 -5.48,5.834 -25.81,-3.535 -33.116,-9.781 -36.233,-30.973 -30.574,-49.43 -50.912,-69.769 -21.272,-21.271 -52.149,-15.262 -77.369,-40.481 -19.461,-19.461 -40.017,-57.363 12.716,-112.371 -0.361,-0.182 -0.696,-0.414 -0.989,-0.707 -1.961,-1.961 -1.44,-5.661 1.164,-8.263 2.603,-2.605 6.303,-3.124 8.264,-1.164 0.311,0.31 0.553,0.671 0.741,1.057 63.515,-59.72 98.462,-30.389 116.756,0.709 18.857,32.055 7.493,41.072 26.398,60.812 10.666,11.137 42.414,12.07 60.693,39.244 6.541,9.724 5.039,17.59 2.033,20.063"
             style="fill:#110f0d;fill-opacity:1;fill-rule:nonzero;stroke:none"
             id="path5384" />
        </g>
        <g
           id="g5386"
           transform="translate(467.6455,201.7031)">
          <path
             d="m 0,0 c -0.477,-0.476 -0.477,-1.247 0,-1.724 0.476,-0.474 1.247,-0.474 1.724,0 0.475,0.477 0.475,1.248 0,1.724 C 1.247,0.478 0.476,0.478 0,0 m 4.757,4.759 c -0.476,-0.477 -0.476,-1.248 0,-1.725 0.476,-0.475 1.248,-0.475 1.725,0 0.475,0.477 0.475,1.248 0,1.725 -0.477,0.475 -1.249,0.475 -1.725,0 m 4.758,4.758 c -0.476,-0.477 -0.476,-1.248 0,-1.725 0.476,-0.476 1.248,-0.476 1.724,0 0.476,0.477 0.476,1.248 0,1.725 -0.476,0.474 -1.248,0.474 -1.724,0 m 4.758,4.756 c -0.476,-0.475 -0.476,-1.248 0,-1.722 0.475,-0.478 1.249,-0.478 1.723,0 0.477,0.474 0.477,1.247 0,1.722 -0.474,0.476 -1.248,0.476 -1.723,0 m 4.757,4.758 c -0.476,-0.475 -0.476,-1.248 0,-1.723 0.476,-0.477 1.248,-0.477 1.724,0 0.477,0.475 0.477,1.248 0,1.723 -0.476,0.477 -1.248,0.477 -1.724,0 m 4.758,4.757 c -0.475,-0.476 -0.475,-1.247 0,-1.724 0.476,-0.474 1.247,-0.474 1.724,0 0.475,0.477 0.475,1.248 0,1.724 -0.477,0.478 -1.248,0.478 -1.724,0 m 11.35,-6.931 1.473,1.473 c 1.61,1.609 -4.499,10.325 -13.644,19.473 l -4.95,-4.95 c 0.205,-0.205 0.383,-0.426 0.537,-0.66 0.46,-0.699 0.69,-1.507 0.69,-2.317 0,-1.078 -0.409,-2.156 -1.227,-2.976 L -2.43,6.453 -2.432,6.452 C -2.618,6.267 -2.821,6.107 -3.031,5.963 -3.106,5.911 -3.185,5.87 -3.264,5.824 -3.4,5.744 -3.539,5.668 -3.683,5.605 -3.787,5.559 -3.893,5.519 -4,5.48 -4.114,5.439 -4.229,5.406 -4.348,5.377 -4.481,5.344 -4.613,5.311 -4.75,5.288 -4.81,5.279 -4.872,5.277 -4.934,5.271 -5.091,5.253 -5.247,5.227 -5.406,5.227 c -0.44,0 -0.873,0.083 -1.293,0.223 -0.017,0.005 -0.032,0.01 -0.049,0.017 -0.201,0.069 -0.399,0.149 -0.592,0.249 -0.373,0.192 -0.729,0.427 -1.042,0.737 l -4.949,-4.949 c 8.16,-8.16 15.978,-13.901 18.712,-13.901 0.33,0 0.586,0.084 0.76,0.255 l 1.473,1.475 c 1.972,-1.37 3.68,-2.16 4.754,-2.16 0.378,0 0.678,0.098 0.883,0.303 L 36.995,11.22 c 0.789,0.789 -0.006,2.971 -1.857,5.637 m 2.564,-6.344 -23.744,-23.744 c -0.27,-0.273 -0.768,-0.596 -1.59,-0.596 -1.385,0 -3.177,0.932 -4.629,1.871 l -0.891,-0.893 c -0.251,-0.251 -0.71,-0.548 -1.467,-0.548 -3.609,0 -12.354,7.127 -19.419,14.195 l -0.707,0.706 0.707,0.707 4.949,4.949 0.707,0.707 0.707,-0.707 24.985,24.985 -0.707,0.708 0.707,0.707 4.95,4.95 0.707,0.707 0.707,-0.707 c 4.463,-4.465 8.358,-8.973 10.967,-12.696 3.969,-5.665 3.515,-7.353 2.677,-8.191 L 36.426,16.73 c 1.435,-2.217 2.624,-4.871 1.276,-6.217 m -64.953,10.513 c 1.045,0.944 2.651,0.92 3.658,-0.085 1.02,-1.021 1.033,-2.661 0.049,-3.703 3.034,-2.674 5.991,-4.33 7.7,-4.33 0.467,0 0.841,0.123 1.098,0.38 l 25.928,25.929 c 1.2,1.199 -0.535,4.937 -3.944,8.803 -1.043,-0.99 -2.686,-0.979 -3.708,0.043 -1.005,1.005 -1.029,2.608 -0.09,3.654 -2.808,2.35 -5.48,3.79 -7.071,3.79 -0.467,0 -0.84,-0.123 -1.097,-0.381 L -30.655,29.198 c -1.136,-1.134 0.359,-4.539 3.404,-8.172 m -0.613,-0.822 c -1.296,1.525 -2.367,3.051 -3.101,4.446 -1.607,3.066 -1.103,4.549 -0.398,5.255 l 25.928,25.928 c 0.306,0.308 0.869,0.674 1.804,0.674 1.913,0 4.859,-1.597 7.891,-4.176 0.99,0.479 2.211,0.317 3.032,-0.505 0.805,-0.805 0.98,-1.992 0.538,-2.972 1.55,-1.733 2.824,-3.497 3.66,-5.089 1.609,-3.066 1.105,-4.549 0.399,-5.255 L -14.039,12.581 c -0.307,-0.307 -0.868,-0.672 -1.805,-0.672 -2.049,0 -5.284,1.818 -8.541,4.732 -0.979,-0.442 -2.167,-0.267 -2.969,0.538 -0.822,0.818 -0.984,2.037 -0.51,3.025 m -33.463,41.123 c 0.476,0.477 0.476,1.248 0,1.725 -0.476,0.474 -1.247,0.474 -1.724,0 -0.475,-0.477 -0.475,-1.248 0,-1.725 0.477,-0.475 1.248,-0.475 1.724,0 m 4.758,4.758 c 0.476,0.476 0.476,1.247 0,1.725 -0.476,0.474 -1.248,0.474 -1.724,0 -0.476,-0.478 -0.476,-1.249 0,-1.725 0.476,-0.477 1.248,-0.477 1.724,0 m 4.758,4.758 c 0.475,0.475 0.475,1.248 0,1.723 -0.477,0.476 -1.249,0.476 -1.724,0 -0.477,-0.475 -0.477,-1.248 0,-1.723 0.475,-0.477 1.247,-0.477 1.724,0 m 4.757,4.758 c 0.476,0.475 0.476,1.248 0,1.722 -0.476,0.478 -1.248,0.478 -1.724,0 -0.476,-0.474 -0.476,-1.247 0,-1.722 0.476,-0.477 1.248,-0.477 1.724,0 m 4.758,4.756 c 0.476,0.476 0.476,1.248 0,1.724 -0.476,0.478 -1.248,0.478 -1.724,0 -0.476,-0.476 -0.476,-1.248 0,-1.724 0.476,-0.475 1.248,-0.475 1.724,0 m 4.757,4.758 c 0.477,0.477 0.477,1.247 0,1.725 -0.476,0.474 -1.248,0.474 -1.724,0 -0.475,-0.478 -0.475,-1.248 0,-1.725 0.476,-0.475 1.248,-0.475 1.724,0 m 11.42,-58.996 c 0.476,0.477 0.476,1.248 0,1.725 -0.476,0.474 -1.247,0.474 -1.724,0 -0.475,-0.477 -0.475,-1.248 0,-1.725 0.477,-0.475 1.248,-0.475 1.724,0 m 4.758,4.758 c 0.476,0.477 0.476,1.247 0,1.725 -0.476,0.474 -1.248,0.474 -1.724,0 -0.476,-0.478 -0.476,-1.248 0,-1.725 0.476,-0.477 1.248,-0.477 1.724,0 m 4.758,4.758 c 0.475,0.475 0.475,1.248 0,1.723 -0.476,0.476 -1.249,0.476 -1.724,0 -0.477,-0.475 -0.477,-1.248 0,-1.723 0.475,-0.477 1.248,-0.477 1.724,0 m 4.757,4.758 c 0.476,0.475 0.476,1.248 0,1.722 -0.476,0.478 -1.248,0.478 -1.724,0 -0.476,-0.474 -0.476,-1.247 0,-1.722 0.476,-0.477 1.248,-0.477 1.724,0 m 4.758,4.756 c 0.476,0.476 0.476,1.249 0,1.724 -0.475,0.478 -1.248,0.478 -1.724,0 -0.476,-0.475 -0.476,-1.248 0,-1.724 0.476,-0.475 1.249,-0.475 1.724,0 m 4.757,4.758 c 0.478,0.477 0.478,1.247 0,1.725 -0.476,0.475 -1.247,0.475 -1.724,0 -0.475,-0.478 -0.475,-1.248 0,-1.725 0.477,-0.475 1.248,-0.475 1.724,0 M -16.604,16.605 c 0.475,0.477 0.475,1.25 0,1.724 -0.477,0.478 -1.249,0.478 -1.725,0 -0.477,-0.474 -0.477,-1.247 0,-1.724 0.476,-0.475 1.248,-0.475 1.725,0 m 4.756,4.758 c 0.476,0.477 0.476,1.248 0,1.724 -0.476,0.477 -1.248,0.477 -1.723,0 -0.477,-0.476 -0.477,-1.247 0,-1.724 0.475,-0.475 1.247,-0.475 1.723,0 m 4.758,4.758 c 0.476,0.477 0.476,1.247 0,1.725 -0.476,0.474 -1.248,0.474 -1.723,0 -0.477,-0.478 -0.477,-1.248 0,-1.725 0.475,-0.476 1.247,-0.476 1.723,0 m 4.757,4.757 c 0.477,0.476 0.477,1.248 0,1.726 -0.476,0.474 -1.247,0.474 -1.724,0 -0.475,-0.478 -0.475,-1.25 0,-1.726 0.477,-0.476 1.248,-0.476 1.724,0 m 4.758,4.759 c 0.476,0.475 0.476,1.248 0,1.722 -0.476,0.477 -1.248,0.477 -1.724,0 -0.476,-0.474 -0.476,-1.247 0,-1.722 0.476,-0.477 1.248,-0.477 1.724,0 m 4.758,4.758 c 0.475,0.474 0.475,1.248 0,1.722 -0.477,0.478 -1.248,0.478 -1.724,0 -0.477,-0.474 -0.477,-1.248 0,-1.722 0.476,-0.477 1.247,-0.477 1.724,0 m -51.366,3.789 c 0.476,0.475 0.476,1.248 0,1.722 -0.475,0.478 -1.248,0.478 -1.723,0 -0.477,-0.474 -0.477,-1.247 0,-1.722 0.475,-0.477 1.248,-0.477 1.723,0 m 4.758,4.757 c 0.476,0.475 0.476,1.247 0,1.723 -0.476,0.478 -1.248,0.478 -1.723,0 -0.477,-0.476 -0.477,-1.248 0,-1.723 0.475,-0.476 1.247,-0.476 1.723,0 m 4.758,4.757 c 0.476,0.477 0.476,1.247 0,1.725 -0.476,0.474 -1.248,0.474 -1.725,0 -0.475,-0.478 -0.475,-1.248 0,-1.725 0.477,-0.475 1.249,-0.475 1.725,0 m 4.757,4.757 c 0.476,0.478 0.476,1.248 0,1.726 -0.476,0.474 -1.247,0.474 -1.724,0 -0.475,-0.478 -0.475,-1.248 0,-1.726 0.477,-0.476 1.248,-0.476 1.724,0 m 4.758,4.759 c 0.476,0.475 0.476,1.247 0,1.725 -0.476,0.474 -1.248,0.474 -1.724,0 -0.476,-0.478 -0.476,-1.25 0,-1.725 0.476,-0.477 1.248,-0.477 1.724,0 m 4.758,4.758 c 0.475,0.474 0.475,1.248 0,1.722 -0.477,0.477 -1.249,0.477 -1.724,0 -0.477,-0.474 -0.477,-1.248 0,-1.722 0.475,-0.477 1.247,-0.477 1.724,0 m -45.001,-8.99 c 0.683,-0.686 1.582,-1.028 2.478,-1.028 0.897,0 1.794,0.342 2.48,1.028 l 25.926,25.926 c 1.369,1.369 1.369,3.589 0,4.958 -0.684,0.686 -1.582,1.029 -2.479,1.029 -0.897,0 -1.794,-0.343 -2.479,-1.029 L -65.395,63.939 c -1.371,-1.37 -1.371,-3.587 0,-4.957 m -0.708,-0.708 c -1.757,1.757 -1.757,4.617 0,6.372 l 25.927,25.927 c 0.851,0.853 1.983,1.322 3.186,1.322 1.204,0 2.335,-0.469 3.186,-1.322 1.757,-1.757 1.757,-4.615 0,-6.372 L -59.731,58.274 c -0.851,-0.85 -1.983,-1.32 -3.186,-1.32 -1.204,0 -2.336,0.47 -3.186,1.32 m 18.072,-16.658 c 0.684,-0.683 1.582,-1.026 2.478,-1.026 0.898,0 1.795,0.343 2.48,1.026 l 25.928,25.927 c 1.369,1.37 1.369,3.59 0,4.958 -0.685,0.685 -1.582,1.027 -2.48,1.027 -0.895,0 -1.794,-0.342 -2.478,-1.027 L -48.031,46.574 c -1.369,-1.37 -1.369,-3.589 0,-4.958 m -0.707,-0.707 c -1.757,1.756 -1.757,4.615 0,6.372 l 25.928,25.927 c 0.85,0.853 1.982,1.32 3.185,1.32 1.204,0 2.335,-0.467 3.188,-1.32 1.755,-1.757 1.755,-4.614 0,-6.372 L -42.366,40.909 c -0.852,-0.85 -1.983,-1.319 -3.187,-1.319 -1.203,0 -2.335,0.469 -3.185,1.319 m 22.242,-56.405 c -1.238,-2.887 -2.018,-5.952 -2.522,-9.063 -0.138,-1.569 -0.382,-3.137 -0.31,-4.72 0.017,-0.789 -0.032,-1.584 0.04,-2.371 l 0.249,-2.362 c 0.048,-0.391 0.07,-0.791 0.14,-1.178 l 0.256,-1.161 0.512,-2.32 c 0.44,-1.513 0.981,-3.017 1.473,-4.504 1.059,-2.817 1.821,-5.797 1.622,-8.699 -0.104,-1.44 -0.465,-2.837 -1.101,-4.074 -0.655,-1.229 -1.599,-2.278 -2.751,-3.034 -1.148,-0.747 -2.506,-1.226 -3.814,-1.28 -0.632,-0.023 -1.307,0.071 -1.655,0.293 -0.114,0.057 -0.113,0.083 -0.217,0.164 l -0.396,0.413 -0.784,0.833 c -4.14,4.485 -7.678,9.524 -10.848,14.768 -3.148,5.273 -5.938,10.76 -8.089,16.467 -1.076,2.853 -1.991,5.761 -2.746,8.72 -0.77,2.959 -1.37,5.975 -2.029,9.028 -0.66,3.051 -1.399,6.135 -2.423,9.156 -1.032,3.021 -2.354,5.959 -3.953,8.73 -1.601,2.768 -3.469,5.363 -5.486,7.809 l -1.544,1.808 -1.605,1.742 c -1.051,1.178 -2.307,2.313 -3.57,3.311 -2.555,2.021 -5.372,3.588 -8.214,4.974 -2.851,1.376 -5.749,2.573 -8.644,3.713 -5.791,2.279 -11.557,4.463 -17.036,7.201 -4.84,2.418 -9.467,5.25 -13.599,8.69 0.031,-0.018 0.063,-0.034 0.094,-0.048 2.864,-1.392 5.876,-2.475 8.96,-3.192 3.08,-0.741 6.216,-1.158 9.346,-1.369 3.148,-0.194 6.232,-0.276 9.417,-0.09 6.339,0.524 12.522,3.322 16.797,7.991 2.181,2.279 3.859,4.986 5.149,7.829 1.248,2.869 2.02,5.926 2.303,9.017 -0.863,-6.142 -3.697,-11.971 -8.021,-16.293 -4.311,-4.371 -10.301,-6.795 -16.325,-7.076 -3.015,-0.09 -6.146,0.042 -9.185,0.307 -3.054,0.272 -6.082,0.745 -9.021,1.522 -2.947,0.754 -5.784,1.851 -8.473,3.229 -0.659,0.368 -1.337,0.705 -1.977,1.107 l -0.977,0.589 c -0.37,0.23 -0.757,0.44 -1.208,0.622 -0.229,0.09 -0.465,0.175 -0.793,0.229 -0.066,0.014 -0.179,0.021 -0.28,0.024 -0.093,0.005 -0.202,0.009 -0.372,-0.024 -0.076,-0.015 -0.151,-0.033 -0.223,-0.053 -0.107,-0.038 -0.225,-0.097 -0.328,-0.163 -0.191,-0.097 -0.436,-0.406 -0.529,-0.681 -0.068,-0.2 -0.086,-0.539 -0.054,-0.65 0.021,-0.133 0.065,-0.315 0.104,-0.397 0.076,-0.183 0.167,-0.351 0.243,-0.46 0.166,-0.253 0.322,-0.431 0.481,-0.603 0.601,-0.617 1.143,-1.124 1.718,-1.693 4.609,-4.363 9.966,-7.86 15.567,-10.709 5.598,-2.877 11.435,-5.161 17.162,-7.492 5.697,-2.347 11.44,-4.682 16.103,-8.351 1.162,-0.935 2.219,-1.885 3.232,-3.027 l 1.541,-1.684 1.473,-1.739 c 1.921,-2.345 3.676,-4.815 5.178,-7.419 1.513,-2.601 2.758,-5.34 3.746,-8.19 0.978,-2.852 1.702,-5.811 2.366,-8.821 1.278,-6.027 2.639,-12.271 4.989,-18.136 2.296,-5.886 5.222,-11.473 8.494,-16.814 3.284,-5.347 7.028,-10.45 11.421,-14.989 l 0.83,-0.842 0.419,-0.418 c 0.188,-0.17 0.475,-0.415 0.714,-0.527 1.019,-0.541 1.963,-0.557 2.864,-0.526 1.796,0.119 3.446,0.766 4.876,1.733 1.424,0.982 2.583,2.331 3.353,3.864 0.753,1.54 1.133,3.218 1.214,4.874 0.145,3.33 -0.77,6.488 -1.943,9.426 -0.511,1.448 -1.056,2.858 -1.514,4.309 l -0.54,2.215 -0.272,1.106 c -0.077,0.371 -0.112,0.75 -0.172,1.125 l -0.321,2.259 c -0.098,0.754 -0.076,1.519 -0.12,2.277 -0.127,1.525 0.057,3.042 0.135,4.568 0.38,3.023 1.027,6.039 2.137,8.906 1.109,2.863 2.534,5.612 4.254,8.176 1.714,2.562 3.705,4.968 6.055,6.997 -4.873,-3.871 -8.57,-9.136 -11.043,-14.879 M -49.379,122.04 c 6.074,-6.484 12.198,-12.921 18.404,-19.274 6.345,-6.539 12.768,-13.001 19.219,-19.435 C 1.072,70.558 14.079,57.961 27.425,45.704 25.867,44.007 24.327,42.29 22.79,40.571 c 1.815,1.622 3.628,3.246 5.418,4.894 l 0.262,0.239 -0.262,0.285 C 15.876,59.427 3.198,72.518 -9.658,85.43 c -6.434,6.449 -12.896,12.873 -19.435,19.216 -6.518,6.368 -13.12,12.649 -19.775,18.877 l -0.564,0.529 -0.452,-0.563 c -1.582,-1.963 -3.473,-3.678 -5.594,-5.086 -2.129,-1.389 -4.503,-2.449 -7.006,-3.114 2.561,0.38 5.086,1.19 7.404,2.443 2.105,1.119 4.006,2.611 5.701,4.308 m -284.828,225.592 c 1.302,1.303 1.302,3.412 0,4.714 -1.301,1.302 -3.412,1.302 -4.713,0 -1.302,-1.302 -1.302,-3.411 0,-4.714 1.301,-1.3 3.412,-1.3 4.713,0 m 12.58,-6.458 c 1.302,1.303 1.302,3.413 0,4.714 -1.302,1.303 -3.412,1.303 -4.714,0 -1.302,-1.301 -1.302,-3.411 0,-4.714 1.302,-1.3 3.412,-1.3 4.714,0 m 12.58,-6.458 c 1.302,1.303 1.302,3.412 0,4.714 -1.302,1.301 -3.412,1.301 -4.714,0 -1.301,-1.302 -1.301,-3.411 0,-4.714 1.302,-1.301 3.412,-1.301 4.714,0 m 12.58,-6.458 c 1.301,1.303 1.301,3.412 0,4.714 -1.302,1.301 -3.412,1.301 -4.714,0 -1.302,-1.302 -1.302,-3.411 0,-4.714 1.302,-1.301 3.412,-1.301 4.714,0 m 12.58,-6.459 c 1.302,1.303 1.302,3.413 0,4.714 -1.302,1.303 -3.413,1.303 -4.715,0 -1.301,-1.301 -1.301,-3.411 0,-4.714 1.302,-1.3 3.413,-1.3 4.715,0 m 12.579,-6.458 c 1.302,1.303 1.302,3.412 0,4.714 -1.301,1.302 -3.412,1.302 -4.713,0 -1.302,-1.302 -1.302,-3.411 0,-4.714 1.301,-1.3 3.412,-1.3 4.713,0 m 44.659,-64.222 c 0.781,0.781 0.781,2.048 0,2.828 -0.782,0.782 -2.047,0.782 -2.828,0 -0.781,-0.78 -0.781,-2.047 0,-2.828 0.781,-0.781 2.046,-0.781 2.828,0 M -69.572,79.515 c -0.781,-0.783 -0.781,-2.048 0,-2.829 0.781,-0.783 2.047,-0.783 2.828,0 0.781,0.781 0.781,2.046 0,2.829 -0.781,0.779 -2.047,0.779 -2.828,0 m 15.202,15.201 c -0.781,-0.78 -0.781,-2.048 0,-2.828 0.78,-0.783 2.047,-0.783 2.828,0 0.781,0.78 0.781,2.048 0,2.828 -0.781,0.78 -2.048,0.78 -2.828,0 m -18.821,2.782 c 0.78,0.78 0.78,2.047 0,2.828 -0.782,0.781 -2.048,0.781 -2.829,0 -0.781,-0.781 -0.781,-2.048 0,-2.828 0.781,-0.78 2.047,-0.78 2.829,0 m -12.465,12.464 c -0.782,-0.78 -0.782,-2.047 0,-2.827 0.781,-0.782 2.047,-0.782 2.828,0 0.781,0.78 0.781,2.047 0,2.827 -0.781,0.781 -2.047,0.781 -2.828,0 m -12.021,12.021 c -0.781,-0.781 -0.781,-2.047 0,-2.829 0.782,-0.781 2.047,-0.781 2.828,0 0.782,0.782 0.782,2.048 0,2.829 -0.781,0.782 -2.046,0.782 -2.828,0 m -38.834,24.469 c 0.782,0.781 0.782,2.048 0,2.828 -0.781,0.782 -2.048,0.782 -2.829,0 -0.781,-0.78 -0.781,-2.047 0,-2.828 0.781,-0.78 2.048,-0.78 2.829,0 m 10.959,16.616 c -0.781,-0.781 -0.781,-2.047 0,-2.828 0.782,-0.781 2.047,-0.781 2.828,0 0.782,0.781 0.782,2.047 0,2.828 -0.781,0.783 -2.046,0.783 -2.828,0 m 15.465,-28.509 c -0.781,-0.783 -0.781,-2.048 0,-2.83 0.781,-0.781 2.047,-0.781 2.828,0 0.782,0.782 0.782,2.047 0,2.83 -0.781,0.781 -2.047,0.781 -2.828,0 m -46.22,46.218 c 0.781,0.783 0.781,2.047 0,2.828 -0.781,0.782 -2.046,0.782 -2.829,0 -0.78,-0.781 -0.78,-2.045 0,-2.828 0.783,-0.781 2.048,-0.781 2.829,0 m -21.014,21.016 c 0.781,0.779 0.781,2.047 0,2.827 -0.781,0.781 -2.048,0.781 -2.828,0 -0.782,-0.78 -0.782,-2.048 0,-2.827 0.78,-0.781 2.047,-0.781 2.828,0 m -22.922,22.922 c 0.781,0.779 0.781,2.047 0,2.828 -0.781,0.78 -2.048,0.78 -2.828,0 -0.781,-0.781 -0.781,-2.049 0,-2.828 0.78,-0.781 2.047,-0.781 2.828,0 m -58.069,39.981 17.749,17.749 -0.34,0.342 -0.367,0.365 -0.006,-0.006 -17.736,-17.735 -0.008,-0.008 0.353,-0.352 z m 212.183,-170.361 0.035,0.035 -0.707,0.707 -0.047,-0.046 -24.702,-24.703 0.707,-0.707 z m -5.301,5.13 0.121,0.12 -0.707,0.707 -0.132,-0.133 -24.617,-24.616 0.707,-0.707 z m -3.779,3.644 -0.34,0.34 -0.367,0.367 -0.007,-0.005 -24.366,-24.368 0.707,-0.707 z m -28.893,-19.701 24.221,24.221 -0.36,0.36 -0.347,0.347 -0.006,-0.005 -24.216,-24.216 z m -5.129,5.301 24.049,24.05 -0.353,0.352 -0.354,0.355 -0.005,-0.007 -24.044,-24.043 z m 19.736,28.223 -0.371,0.371 -0.336,0.336 -0.006,-0.005 -23.902,-23.905 0.707,-0.708 z m -5.66,5.475 -0.365,0.365 -0.342,0.342 -0.006,-0.005 -23.719,-23.719 0.707,-0.707 z m -6.11,5.911 -0.362,0.364 -0.345,0.343 -0.005,-0.004 -23.522,-23.522 0.707,-0.707 z m -5.838,5.652 -0.359,0.356 -0.349,0.351 -0.006,-0.007 -23.332,-23.33 0.707,-0.707 z m -29.879,-16.796 23.234,23.234 0.103,0.103 -0.707,0.706 -0.115,-0.113 -23.217,-23.216 -0.004,-0.008 0.289,-0.289 z m 15.971,29.76 -0.707,0.707 -22.395,-22.396 0.707,-0.707 z m -29.819,-14.972 0.707,-0.707 22.395,22.395 -0.707,0.707 z m 14.343,30.447 -0.345,0.345 -0.006,-0.004 -22.383,-22.383 -0.006,-0.008 0.356,-0.356 0.351,-0.351 22.395,22.395 z m -8,7.74 -0.342,0.342 -0.006,-0.005 -22.083,-22.084 -0.007,-0.006 0.348,-0.349 0.359,-0.358 22.096,22.095 z m -8.964,8.673 -0.362,0.364 -0.007,-0.006 -21.304,-21.307 0.707,-0.707 21.311,21.312 z m -8.993,8.701 0.234,-0.226 0.407,0.405 -20.337,20.337 -0.005,0.006 -0.37,-0.367 -0.337,-0.34 2.121,-2.121 7.984,-7.725 -20.691,-20.691 0.707,-0.707 20.697,20.697 -0.366,0.365 9.596,-9.285 -21.013,-21.013 0.707,-0.707 21.019,21.019 z m -40.834,-0.528 20.342,20.343 -0.352,0.352 -0.355,0.355 -0.006,-0.006 -20.336,-20.337 z m -10.662,11.023 19.983,19.984 -0.354,0.355 -0.353,0.352 -0.006,-0.007 -19.977,-19.977 z m -11.418,11.798 19.601,19.602 -0.345,0.346 -0.362,0.361 -0.006,-0.006 -19.595,-19.596 z m -12.287,12.7 19.189,19.189 -0.354,0.356 -0.353,0.35 -0.005,-0.006 -19.184,-19.182 z m -12.258,13.137 18.309,18.31 -0.707,0.707 -18.309,-18.31 z m -14.672,14.673 0.342,-0.341 0.365,-0.366 18.308,18.309 -0.351,0.351 -0.356,0.356 -0.005,-0.006 -18.295,-18.294 z M -327.512,0 c -0.476,-0.476 -0.476,-1.247 0,-1.724 0.476,-0.474 1.248,-0.474 1.724,0 0.476,0.477 0.476,1.248 0,1.724 -0.476,0.478 -1.248,0.478 -1.724,0 m -4.758,4.759 c -0.476,-0.477 -0.476,-1.248 0,-1.725 0.477,-0.475 1.248,-0.475 1.724,0 0.476,0.477 0.476,1.248 0,1.725 -0.476,0.475 -1.247,0.475 -1.724,0 m -4.757,4.758 c -0.476,-0.477 -0.476,-1.248 0,-1.725 0.476,-0.476 1.248,-0.476 1.724,0 0.476,0.477 0.476,1.248 0,1.725 -0.476,0.474 -1.248,0.474 -1.724,0 m -4.758,4.756 c -0.476,-0.475 -0.476,-1.248 0,-1.722 0.476,-0.478 1.248,-0.478 1.724,0 0.476,0.474 0.476,1.247 0,1.722 -0.476,0.476 -1.248,0.476 -1.724,0 m -4.757,4.758 c -0.477,-0.475 -0.477,-1.248 0,-1.723 0.476,-0.477 1.248,-0.477 1.724,0 0.476,0.475 0.476,1.248 0,1.723 -0.476,0.477 -1.248,0.477 -1.724,0 m -4.758,4.757 c -0.476,-0.476 -0.476,-1.247 0,-1.724 0.476,-0.474 1.248,-0.474 1.724,0 0.476,0.477 0.476,1.248 0,1.724 -0.476,0.478 -1.248,0.478 -1.724,0 m 38.843,-22.284 -4.95,4.949 c -0.204,-0.204 -0.425,-0.384 -0.658,-0.537 -0.35,-0.229 -0.727,-0.401 -1.118,-0.518 -0.391,-0.115 -0.795,-0.171 -1.199,-0.171 -0.607,0 -1.214,0.128 -1.775,0.387 -0.186,0.086 -0.368,0.188 -0.543,0.302 -0.233,0.153 -0.454,0.333 -0.658,0.537 L -343.805,26.9 c -0.819,0.82 -1.228,1.898 -1.228,2.976 0,0.81 0.23,1.618 0.691,2.317 0.153,0.234 0.332,0.455 0.537,0.66 l -4.95,4.95 c -9.146,-9.148 -15.254,-17.864 -13.644,-19.473 l 1.473,-1.473 c -1.851,-2.666 -2.646,-4.848 -1.858,-5.637 l 23.744,-23.744 c 0.206,-0.205 0.505,-0.303 0.883,-0.303 1.075,0 2.783,0.79 4.755,2.16 l 1.473,-1.475 c 0.174,-0.171 0.43,-0.255 0.76,-0.255 2.734,0 10.552,5.741 18.712,13.901 m 0.707,0.707 0.707,-0.707 -0.707,-0.706 c -7.065,-7.068 -15.81,-14.195 -19.419,-14.195 -0.757,0 -1.216,0.297 -1.467,0.548 l -0.892,0.893 c -1.451,-0.939 -3.243,-1.871 -4.629,-1.871 -0.821,0 -1.318,0.323 -1.59,0.596 l -23.744,23.744 c -1.348,1.346 -0.159,4 1.277,6.217 l -0.893,0.893 c -0.838,0.838 -1.291,2.526 2.677,8.191 2.61,3.723 6.505,8.231 10.968,12.696 l 0.707,0.707 0.707,-0.707 4.95,-4.95 0.707,-0.707 -0.707,-0.708 24.984,-24.985 0.707,0.707 0.707,-0.707 z m 49.012,59.116 c 0.476,0.477 0.476,1.248 0,1.725 -0.476,0.474 -1.248,0.474 -1.723,0 -0.476,-0.477 -0.476,-1.248 0,-1.725 0.475,-0.475 1.247,-0.475 1.723,0 m -6.481,6.483 c -0.476,-0.478 -0.476,-1.249 0,-1.725 0.476,-0.477 1.248,-0.477 1.723,0 0.476,0.476 0.476,1.247 0,1.725 -0.475,0.474 -1.247,0.474 -1.723,0 m -4.758,4.756 c -0.476,-0.475 -0.476,-1.248 0,-1.723 0.476,-0.477 1.248,-0.477 1.724,0 0.476,0.475 0.476,1.248 0,1.723 -0.476,0.476 -1.248,0.476 -1.724,0 m -4.757,4.757 c -0.476,-0.474 -0.476,-1.247 0,-1.722 0.476,-0.477 1.247,-0.477 1.723,0 0.476,0.475 0.476,1.248 0,1.722 -0.476,0.478 -1.247,0.478 -1.723,0 m -4.758,4.758 c -0.476,-0.476 -0.476,-1.248 0,-1.724 0.476,-0.475 1.248,-0.475 1.724,0 0.476,0.476 0.476,1.248 0,1.724 -0.476,0.478 -1.248,0.478 -1.724,0 m -4.758,4.759 c -0.476,-0.478 -0.476,-1.248 0,-1.725 0.477,-0.475 1.248,-0.475 1.724,0 0.476,0.477 0.476,1.247 0,1.725 -0.476,0.474 -1.247,0.474 -1.724,0 m -11.42,-58.996 c -0.476,-0.477 -0.476,-1.248 0,-1.725 0.476,-0.475 1.248,-0.475 1.724,0 0.476,0.477 0.476,1.248 0,1.725 -0.476,0.474 -1.248,0.474 -1.724,0 m -4.757,4.758 c -0.476,-0.478 -0.476,-1.248 0,-1.725 0.476,-0.477 1.248,-0.477 1.723,0 0.476,0.477 0.476,1.247 0,1.725 -0.475,0.474 -1.247,0.474 -1.723,0 m -3.034,3.033 c 0.476,0.475 0.476,1.248 0,1.723 -0.476,0.476 -1.248,0.476 -1.724,0 -0.476,-0.475 -0.476,-1.248 0,-1.723 0.476,-0.477 1.248,-0.477 1.724,0 m -4.758,4.758 c 0.476,0.475 0.476,1.248 0,1.722 -0.476,0.478 -1.247,0.478 -1.723,0 -0.476,-0.474 -0.476,-1.247 0,-1.722 0.476,-0.477 1.247,-0.477 1.723,0 m -4.757,4.756 c 0.476,0.476 0.476,1.249 0,1.724 -0.476,0.478 -1.248,0.478 -1.724,0 -0.476,-0.475 -0.476,-1.248 0,-1.724 0.476,-0.475 1.248,-0.475 1.724,0 m -4.758,4.758 c 0.476,0.477 0.476,1.247 0,1.725 -0.476,0.475 -1.247,0.475 -1.724,0 -0.476,-0.478 -0.476,-1.248 0,-1.725 0.477,-0.475 1.248,-0.475 1.724,0 m 12.551,-31.578 c -0.476,-0.474 -0.476,-1.247 0,-1.724 0.476,-0.475 1.248,-0.475 1.724,0 0.476,0.477 0.476,1.25 0,1.724 -0.476,0.478 -1.248,0.478 -1.724,0 m -4.757,4.758 c -0.477,-0.476 -0.477,-1.247 0,-1.724 0.476,-0.475 1.247,-0.475 1.723,0 0.476,0.477 0.476,1.248 0,1.724 -0.476,0.477 -1.247,0.477 -1.723,0 m -4.758,4.759 c -0.476,-0.478 -0.476,-1.248 0,-1.725 0.476,-0.476 1.248,-0.476 1.724,0 0.476,0.477 0.476,1.247 0,1.725 -0.476,0.474 -1.248,0.474 -1.724,0 m -4.758,4.758 c -0.476,-0.478 -0.476,-1.25 0,-1.726 0.476,-0.476 1.248,-0.476 1.724,0 0.476,0.476 0.476,1.248 0,1.726 -0.476,0.474 -1.248,0.474 -1.724,0 m -4.757,4.755 c -0.476,-0.474 -0.476,-1.247 0,-1.722 0.476,-0.477 1.248,-0.477 1.724,0 0.475,0.475 0.475,1.248 0,1.722 -0.476,0.477 -1.248,0.477 -1.724,0 m -4.758,4.758 c -0.476,-0.474 -0.476,-1.248 0,-1.722 0.476,-0.477 1.248,-0.477 1.724,0 0.476,0.474 0.476,1.248 0,1.722 -0.476,0.478 -1.248,0.478 -1.724,0 m 53.089,2.067 c 0.476,0.475 0.476,1.248 0,1.722 -0.476,0.478 -1.248,0.478 -1.724,0 -0.476,-0.474 -0.476,-1.247 0,-1.722 0.476,-0.477 1.248,-0.477 1.724,0 m -6.481,6.48 c -0.476,-0.476 -0.476,-1.248 0,-1.723 0.476,-0.476 1.247,-0.476 1.723,0 0.476,0.475 0.476,1.247 0,1.723 -0.476,0.478 -1.247,0.478 -1.723,0 m -4.758,4.759 c -0.476,-0.478 -0.476,-1.248 0,-1.725 0.476,-0.475 1.248,-0.475 1.724,0 0.476,0.477 0.476,1.247 0,1.725 -0.476,0.474 -1.248,0.474 -1.724,0 m -4.757,4.758 c -0.476,-0.478 -0.476,-1.248 0,-1.726 0.475,-0.476 1.247,-0.476 1.723,0 0.476,0.478 0.476,1.248 0,1.726 -0.476,0.474 -1.248,0.474 -1.723,0 m -4.758,4.758 c -0.476,-0.478 -0.476,-1.25 0,-1.725 0.476,-0.477 1.248,-0.477 1.724,0 0.475,0.475 0.475,1.247 0,1.725 -0.476,0.474 -1.248,0.474 -1.724,0 m -4.758,4.755 c -0.476,-0.474 -0.476,-1.248 0,-1.722 0.476,-0.477 1.248,-0.477 1.724,0 0.476,0.474 0.476,1.248 0,1.722 -0.476,0.477 -1.248,0.477 -1.724,0 m 14.117,15.214 25.927,-25.926 c 0.684,-0.686 1.582,-1.028 2.479,-1.028 0.897,0 1.794,0.342 2.479,1.028 1.37,1.37 1.37,3.587 0,4.957 l -25.927,25.927 c -0.685,0.686 -1.582,1.029 -2.479,1.029 -0.898,0 -1.795,-0.343 -2.479,-1.029 -1.37,-1.369 -1.37,-3.589 0,-4.958 m 25.22,-26.634 -25.927,25.927 c -0.851,0.853 -1.32,1.984 -1.32,3.188 0,1.203 0.469,2.335 1.32,3.184 0.851,0.853 1.982,1.322 3.186,1.322 1.203,0 2.335,-0.469 3.186,-1.322 l 25.927,-25.927 c 1.757,-1.755 1.757,-4.615 0,-6.372 -0.851,-0.85 -1.982,-1.32 -3.186,-1.32 -1.203,0 -2.335,0.47 -3.186,1.32 m -29.076,-29.076 -25.927,25.928 c -0.257,0.258 -0.631,0.381 -1.098,0.381 -1.591,-0.002 -4.262,-1.44 -7.07,-3.79 0.938,-1.046 0.915,-2.649 -0.09,-3.654 -1.022,-1.022 -2.666,-1.033 -3.708,-0.043 -3.408,-3.866 -5.144,-7.604 -3.944,-8.803 l 25.928,-25.929 c 0.257,-0.257 0.63,-0.38 1.097,-0.38 1.71,0 4.667,1.656 7.701,4.33 -0.984,1.042 -0.971,2.682 0.049,3.703 1.006,1.005 2.613,1.029 3.657,0.085 3.045,3.634 4.54,7.038 3.405,8.172 m 0.309,-4.548 c -0.733,-1.395 -1.804,-2.921 -3.1,-4.446 0.473,-0.988 0.311,-2.207 -0.509,-3.025 -0.804,-0.805 -1.991,-0.98 -2.97,-0.538 -3.257,-2.914 -6.492,-4.732 -8.542,-4.732 -0.936,0 -1.498,0.365 -1.805,0.672 l -25.927,25.929 c -0.706,0.706 -1.21,2.189 0.398,5.255 0.837,1.592 2.111,3.356 3.66,5.089 -0.44,0.98 -0.266,2.167 0.538,2.972 0.822,0.822 2.043,0.984 3.033,0.505 3.031,2.578 5.977,4.174 7.89,4.176 0.936,0 1.498,-0.366 1.805,-0.674 l 25.927,-25.928 c 0.706,-0.706 1.21,-2.189 -0.398,-5.255 m -13.819,42.893 25.928,-25.927 c 0.685,-0.683 1.582,-1.026 2.479,-1.026 0.897,0 1.794,0.343 2.479,1.026 1.369,1.369 1.369,3.588 0,4.958 l -25.928,25.927 c -0.684,0.685 -1.582,1.027 -2.479,1.027 -0.897,0 -1.794,-0.342 -2.479,-1.027 -1.369,-1.368 -1.369,-3.588 0,-4.958 m 25.221,-26.634 -25.928,25.927 c -0.851,0.853 -1.319,1.983 -1.319,3.186 0,1.205 0.468,2.335 1.319,3.186 0.851,0.853 1.983,1.32 3.186,1.32 1.204,0 2.335,-0.467 3.186,-1.32 l 25.928,-25.927 c 1.757,-1.757 1.757,-4.616 0,-6.372 -0.851,-0.85 -1.983,-1.319 -3.186,-1.319 -1.203,0 -2.335,0.469 -3.186,1.319 m 88.291,10.807 c -0.104,0.066 -0.221,0.125 -0.328,0.163 -0.073,0.02 -0.147,0.038 -0.224,0.053 -0.169,0.033 -0.278,0.029 -0.371,0.024 -0.101,-0.003 -0.213,-0.01 -0.28,-0.024 -0.329,-0.054 -0.563,-0.139 -0.793,-0.229 -0.452,-0.182 -0.839,-0.392 -1.208,-0.622 l -0.976,-0.589 c -0.642,-0.402 -1.319,-0.739 -1.978,-1.107 -2.688,-1.378 -5.526,-2.475 -8.473,-3.229 -2.939,-0.777 -5.967,-1.25 -9.022,-1.522 -3.037,-0.265 -6.17,-0.397 -9.184,-0.307 -6.025,0.281 -12.015,2.705 -16.325,7.076 -4.324,4.322 -7.159,10.151 -8.022,16.293 0.283,-3.091 1.056,-6.148 2.304,-9.017 1.289,-2.843 2.968,-5.55 5.149,-7.829 4.275,-4.669 10.457,-7.467 16.797,-7.991 3.185,-0.186 6.269,-0.104 9.416,0.09 3.131,0.211 6.266,0.628 9.346,1.369 3.085,0.717 6.097,1.8 8.961,3.192 0.031,0.014 0.064,0.03 0.094,0.048 -4.132,-3.44 -8.759,-6.272 -13.599,-8.69 -5.48,-2.738 -11.245,-4.922 -17.036,-7.201 -2.895,-1.14 -5.793,-2.337 -8.645,-3.713 -2.842,-1.386 -5.658,-2.953 -8.214,-4.974 -1.262,-0.998 -2.519,-2.133 -3.569,-3.311 l -1.606,-1.742 -1.543,-1.808 c -2.017,-2.446 -3.885,-5.041 -5.487,-7.809 -1.598,-2.771 -2.92,-5.709 -3.953,-8.73 -1.023,-3.021 -1.762,-6.105 -2.423,-9.156 -0.659,-3.053 -1.258,-6.069 -2.028,-9.028 -0.756,-2.959 -1.671,-5.867 -2.746,-8.72 -2.152,-5.707 -4.942,-11.194 -8.09,-16.467 -3.169,-5.244 -6.707,-10.283 -10.848,-14.768 l -0.783,-0.833 -0.396,-0.413 c -0.105,-0.081 -0.103,-0.107 -0.217,-0.164 -0.348,-0.222 -1.023,-0.316 -1.655,-0.293 -1.308,0.054 -2.666,0.533 -3.814,1.28 -1.152,0.756 -2.097,1.805 -2.752,3.034 -0.636,1.237 -0.997,2.634 -1.1,4.074 -0.199,2.902 0.563,5.882 1.622,8.699 0.492,1.487 1.033,2.991 1.472,4.504 l 0.513,2.32 0.256,1.161 c 0.069,0.387 0.092,0.787 0.139,1.178 l 0.25,2.362 c 0.072,0.787 0.023,1.582 0.04,2.371 0.072,1.583 -0.172,3.151 -0.311,4.72 -0.503,3.111 -1.283,6.176 -2.521,9.063 -2.473,5.743 -6.17,11.008 -11.044,14.879 2.35,-2.029 4.341,-4.435 6.055,-6.997 1.721,-2.564 3.146,-5.313 4.255,-8.176 1.109,-2.867 1.757,-5.883 2.137,-8.906 0.077,-1.526 0.262,-3.043 0.135,-4.568 -0.045,-0.758 -0.022,-1.523 -0.12,-2.277 l -0.322,-2.259 c -0.059,-0.375 -0.095,-0.754 -0.172,-1.125 l -0.271,-1.106 -0.54,-2.215 c -0.458,-1.451 -1.003,-2.861 -1.515,-4.309 -1.173,-2.938 -2.088,-6.096 -1.942,-9.426 0.081,-1.656 0.461,-3.334 1.214,-4.874 0.77,-1.533 1.929,-2.882 3.353,-3.864 1.43,-0.967 3.08,-1.614 4.876,-1.733 0.901,-0.031 1.845,-0.015 2.863,0.526 0.24,0.112 0.527,0.357 0.714,0.527 l 0.419,0.418 0.831,0.842 c 4.393,4.539 8.137,9.642 11.42,14.989 3.273,5.341 6.199,10.928 8.495,16.814 2.351,5.865 3.71,12.109 4.989,18.136 0.664,3.01 1.388,5.969 2.366,8.821 0.987,2.85 2.233,5.589 3.745,8.19 1.503,2.604 3.258,5.074 5.178,7.419 l 1.473,1.739 1.541,1.684 c 1.014,1.142 2.071,2.092 3.233,3.027 4.663,3.669 10.406,6.004 16.103,8.351 5.726,2.331 11.564,4.615 17.162,7.492 5.601,2.849 10.958,6.346 15.567,10.709 0.576,0.569 1.118,1.076 1.718,1.693 0.159,0.172 0.315,0.35 0.481,0.603 0.076,0.109 0.166,0.277 0.244,0.46 0.037,0.082 0.082,0.264 0.103,0.397 0.031,0.111 0.013,0.45 -0.053,0.65 -0.095,0.275 -0.339,0.584 -0.53,0.681 M -348.579,40.571 c -1.536,1.719 -3.076,3.436 -4.634,5.133 13.345,12.257 26.352,24.854 39.181,37.627 6.45,6.434 12.873,12.896 19.219,19.435 6.205,6.353 12.329,12.79 18.404,19.274 1.695,-1.697 3.596,-3.189 5.701,-4.308 2.318,-1.253 4.843,-2.063 7.404,-2.443 -2.503,0.665 -4.877,1.725 -7.006,3.114 -2.121,1.408 -4.013,3.123 -5.595,5.086 l -0.452,0.563 -0.563,-0.529 c -6.655,-6.228 -13.257,-12.509 -19.776,-18.877 -6.539,-6.343 -13,-12.767 -19.434,-19.216 -12.857,-12.912 -25.535,-26.003 -37.867,-39.441 l -0.261,-0.285 0.261,-0.239 c 1.79,-1.648 3.604,-3.272 5.418,-4.894 M 13.132,347.632 c 1.302,1.303 1.302,3.412 0,4.714 -1.302,1.302 -3.412,1.302 -4.714,0 -1.302,-1.302 -1.302,-3.411 0,-4.714 1.302,-1.3 3.412,-1.3 4.714,0 M 0.553,341.174 c 1.302,1.303 1.302,3.413 0,4.714 -1.302,1.303 -3.413,1.303 -4.715,0 -1.302,-1.301 -1.302,-3.411 0,-4.714 1.302,-1.3 3.413,-1.3 4.715,0 m -12.58,-6.458 c 1.301,1.303 1.301,3.412 0,4.714 -1.302,1.301 -3.411,1.301 -4.714,0 -1.302,-1.302 -1.302,-3.411 0,-4.714 1.303,-1.301 3.412,-1.301 4.714,0 m -12.58,-6.458 c 1.301,1.303 1.301,3.412 0,4.714 -1.302,1.301 -3.412,1.301 -4.714,0 -1.302,-1.302 -1.302,-3.411 0,-4.714 1.302,-1.301 3.412,-1.301 4.714,0 m -12.58,-6.459 c 1.301,1.303 1.301,3.413 0,4.714 -1.302,1.303 -3.413,1.303 -4.714,0 -1.302,-1.301 -1.302,-3.411 0,-4.714 1.301,-1.3 3.412,-1.3 4.714,0 m -12.58,-6.458 c 1.302,1.303 1.302,3.412 0,4.714 -1.301,1.302 -3.412,1.302 -4.712,0 -1.303,-1.302 -1.303,-3.411 0,-4.714 1.3,-1.3 3.411,-1.3 4.712,0 M -99.14,253.947 c -0.781,-0.78 -0.781,-2.047 0,-2.828 0.782,-0.781 2.048,-0.781 2.829,0 0.781,0.781 0.781,2.048 0,2.828 -0.781,0.782 -2.047,0.782 -2.829,0 M -256.216,76.686 c 0.781,0.781 0.781,2.046 0,2.829 -0.781,0.779 -2.048,0.779 -2.828,0 -0.782,-0.783 -0.782,-2.048 0,-2.829 0.78,-0.783 2.047,-0.783 2.828,0 m -15.202,15.202 c 0.781,0.78 0.781,2.048 0,2.828 -0.781,0.78 -2.047,0.78 -2.829,0 -0.78,-0.78 -0.78,-2.048 0,-2.828 0.782,-0.783 2.048,-0.783 2.829,0 m 21.65,5.61 c 0.781,0.78 0.781,2.047 0,2.828 -0.781,0.781 -2.047,0.781 -2.829,0 -0.781,-0.781 -0.781,-2.048 0,-2.828 0.782,-0.78 2.048,-0.78 2.829,0 m 9.636,9.637 c 0.781,0.78 0.781,2.047 0,2.827 -0.781,0.781 -2.047,0.781 -2.828,0 -0.782,-0.78 -0.782,-2.047 0,-2.827 0.781,-0.782 2.047,-0.782 2.828,0 m 12.022,12.019 c 0.78,0.782 0.78,2.048 0,2.829 -0.782,0.782 -2.049,0.782 -2.828,0 -0.784,-0.781 -0.784,-2.047 0,-2.829 0.779,-0.781 2.046,-0.781 2.828,0 m 38.834,30.126 c -0.782,-0.78 -0.782,-2.047 0,-2.828 0.78,-0.78 2.047,-0.78 2.827,0 0.781,0.781 0.781,2.048 0,2.828 -0.78,0.782 -2.047,0.782 -2.827,0 m -10.959,10.96 c 0.779,0.781 0.779,2.047 0,2.828 -0.783,0.783 -2.049,0.783 -2.83,0 -0.781,-0.781 -0.781,-2.047 0,-2.828 0.781,-0.781 2.047,-0.781 2.83,0 m -15.466,-28.511 c 0.781,0.782 0.781,2.047 0,2.83 -0.78,0.781 -2.048,0.781 -2.829,0 -0.781,-0.783 -0.781,-2.048 0,-2.83 0.781,-0.781 2.049,-0.781 2.829,0 m 67.234,72.891 c -0.781,-0.78 -0.781,-2.048 0,-2.827 0.781,-0.781 2.047,-0.781 2.828,0 0.782,0.779 0.782,2.047 0,2.827 -0.781,0.781 -2.047,0.781 -2.828,0 m 22.922,22.923 c -0.781,-0.781 -0.781,-2.049 0,-2.828 0.781,-0.781 2.047,-0.781 2.828,0 0.782,0.779 0.782,2.047 0,2.828 -0.781,0.78 -2.047,0.78 -2.828,0 m 58.422,37.507 0.355,0.353 -0.008,0.008 -17.736,17.735 -0.006,0.006 -0.366,-0.365 -0.341,-0.342 17.749,-17.749 z m -187.114,-194.722 -24.703,24.703 -0.047,0.046 -0.707,-0.707 0.035,-0.034 24.714,-24.715 z m 5.215,5.215 -24.618,24.616 -0.132,0.133 -0.707,-0.707 0.121,-0.12 24.629,-24.629 z m 3.523,3.9 -24.367,24.368 -0.006,0.005 -0.366,-0.365 -0.341,-0.342 24.373,-24.373 z m 4.52,4.672 -24.215,24.216 -0.006,0.005 -0.345,-0.345 -0.362,-0.362 24.221,-24.221 z m 5.128,5.301 -24.042,24.044 -0.006,0.006 -0.338,-0.339 -0.369,-0.368 24.048,-24.05 z m -19.735,28.223 -0.35,-0.35 -0.357,-0.357 23.909,-23.911 0.707,0.708 -23.904,23.905 z m 29.385,-18.249 -23.719,23.718 -0.006,0.006 -0.352,-0.351 -0.002,-0.002 -0.353,-0.354 23.725,-23.724 z m 5.911,6.109 -23.521,23.522 -0.004,0.004 -0.345,-0.342 -0.362,-0.365 23.525,-23.526 z m 5.65,5.841 -23.332,23.331 -0.005,0.006 -0.348,-0.35 -0.36,-0.357 23.338,-23.337 z m 6.239,6.237 0.302,0.303 -0.005,0.008 -23.217,23.216 -0.115,0.113 -0.707,-0.706 0.102,-0.103 23.235,-23.234 z m 6.726,7.668 -22.394,22.396 -0.707,-0.707 22.394,-22.396 z m 6.717,6.717 -22.394,22.395 -0.708,-0.707 22.395,-22.395 z m -13.992,30.788 -0.006,0.004 -0.344,-0.344 -0.363,-0.363 22.395,-22.395 0.36,0.362 0.347,0.345 -0.006,0.008 z m 7.996,7.735 -0.005,0.006 -0.354,-0.354 -0.354,-0.353 22.098,-22.095 0.345,0.345 0.362,0.362 -0.009,0.006 z m 8.978,8.701 -0.36,-0.363 -0.347,-0.345 21.312,-21.312 0.707,0.707 -21.305,21.307 z m 60.836,19.539 -19.978,19.977 -0.006,0.007 -0.352,-0.352 -0.355,-0.355 19.984,-19.984 z m 11.417,11.798 -19.595,19.596 -0.006,0.006 -0.361,-0.359 -0.346,-0.348 19.601,-19.602 z m 12.287,12.7 -19.184,19.182 -0.006,0.006 -0.366,-0.366 -0.341,-0.34 19.19,-19.189 z m 12.258,13.137 -18.309,18.31 -0.707,-0.707 18.309,-18.31 z m 13.258,13.259 -18.308,18.309 0.366,0.367 0.342,0.34 0.003,-0.005 18.296,-18.295 0.008,-0.009 -0.343,-0.343 z"
             style="fill:#ffffff;fill-opacity:1;fill-rule:nonzero;stroke:none"
             id="path5388" />
        </g>
      </g>
    </g>
  </g>
</svg>
